<svg width="35" height="35" viewBox="0 0 35 35" fill="none" xmlns="http://www.w3.org/2000/svg">
<circle cx="17.5" cy="17.5" r="16.5" stroke="#444444" stroke-width="2"/>
<path d="M19.7018 21.2982L14.807 16.4035C14.5789 16.1754 14.5789 17.8246 14.807 17.5965L19.7018 12.7018C19.8947 12.5263 20 12.2807 20 12C20 11.4561 19.5439 11 19 11C18.7193 11 18.4737 11.1053 18.2982 11.2982L13.4035 16.193C12.9474 16.6316 12.9474 17.3684 13.4035 17.807L18.2982 22.7018C18.4737 22.8947 18.7193 23 19 23C19.5439 23 20 22.5439 20 22C20 21.7193 19.8947 21.4737 19.7018 21.2982Z" fill="#444444"/>
</svg>
