<svg width="35" height="35" viewBox="0 0 35 35" fill="none" xmlns="http://www.w3.org/2000/svg">
<circle cx="17.5" cy="17.5" r="16.5" transform="rotate(180 17.5 17.5)" stroke="#444444" stroke-width="2"/>
<path d="M15.2982 13.7018L20.193 18.5965C20.4211 18.8246 20.4211 17.1754 20.193 17.4035L15.2982 22.2982C15.1053 22.4737 15 22.7193 15 23C15 23.5439 15.4561 24 16 24C16.2807 24 16.5263 23.8947 16.7018 23.7018L21.5965 18.807C22.0526 18.3684 22.0526 17.6316 21.5965 17.193L16.7018 12.2982C16.5263 12.1053 16.2807 12 16 12C15.4561 12 15 12.4561 15 13C15 13.2807 15.1053 13.5263 15.2982 13.7018Z" fill="#444444"/>
</svg>
