<svg width="24" height="24" viewBox="0 0 24 24" fill="none" xmlns="http://www.w3.org/2000/svg">
<path d="M21.9995 9.66999C21.9363 9.48708 21.8215 9.32642 21.6688 9.20749C21.5162 9.08857 21.3323 9.01649 21.1395 8.99999L15.4495 8.16999L12.8995 2.99999C12.8176 2.83092 12.6898 2.68833 12.5306 2.58857C12.3714 2.4888 12.1873 2.43588 11.9995 2.43588C11.8116 2.43588 11.6276 2.4888 11.4684 2.58857C11.3092 2.68833 11.1814 2.83092 11.0995 2.99999L8.54949 8.15999L2.85949 8.99999C2.67441 9.0263 2.50041 9.10396 2.35724 9.22415C2.21407 9.34435 2.10745 9.50227 2.04949 9.67999C1.99643 9.85367 1.99167 10.0385 2.03572 10.2147C2.07976 10.3909 2.17095 10.5517 2.29949 10.68L6.42949 14.68L5.42949 20.36C5.39379 20.5475 5.41248 20.7412 5.48336 20.9184C5.55424 21.0956 5.67434 21.2489 5.82949 21.36C5.98071 21.4681 6.15906 21.5319 6.34454 21.5443C6.53001 21.5566 6.71526 21.5171 6.87949 21.43L11.9995 18.76L17.0995 21.44C17.2398 21.5192 17.3983 21.5605 17.5595 21.56C17.7713 21.5607 17.9779 21.4942 18.1495 21.37C18.3046 21.2589 18.4247 21.1056 18.4956 20.9284C18.5665 20.7512 18.5852 20.5575 18.5495 20.37L17.5495 14.69L21.6795 10.69C21.8239 10.5677 21.9306 10.4069 21.9872 10.2263C22.0439 10.0458 22.0481 9.85287 21.9995 9.66999ZM15.8495 13.67C15.7322 13.7834 15.6445 13.9238 15.5939 14.079C15.5434 14.2341 15.5316 14.3992 15.5595 14.56L16.2795 18.75L12.5195 16.75C12.3748 16.673 12.2134 16.6327 12.0495 16.6327C11.8856 16.6327 11.7242 16.673 11.5795 16.75L7.81949 18.75L8.53949 14.56C8.56742 14.3992 8.5556 14.2341 8.50505 14.079C8.45451 13.9238 8.36677 13.7834 8.24949 13.67L5.24949 10.67L9.45949 10.06C9.62149 10.0375 9.77549 9.97553 9.90799 9.87964C10.0405 9.78376 10.1474 9.65683 10.2195 9.50999L11.9995 5.69999L13.8795 9.51999C13.9515 9.66683 14.0585 9.79376 14.191 9.88964C14.3235 9.98553 14.4775 10.0475 14.6395 10.07L18.8495 10.68L15.8495 13.67Z" fill="#444444"/>
</svg>
