<svg width="150" height="144" viewBox="0 0 150 144" fill="none" xmlns="http://www.w3.org/2000/svg">
<path d="M3.42847 61.5175C3.85004 61.4647 4.31376 61.5386 4.64047 61.3593C10.6688 58.0273 17.087 56.1082 23.969 55.3068C29.5231 54.6636 30.8405 51.9959 30.1555 46.4179C29.5337 41.2511 29.5442 36.0211 33.0748 31.5187C34.6346 29.5258 35.8255 27.2376 37.301 25.1709C40.1149 21.2273 43.2345 17.6739 47.956 15.7864C51.8765 14.2153 52.6669 11.2102 50.4432 7.5302C49.9373 6.6972 49.3155 5.92746 48.7674 5.15771C22.8519 12.5072 4.68262 39.3004 3.42847 61.5175ZM131.057 23.5682C132.11 24.4117 133.438 25.055 134.197 26.1094C139.562 33.501 143.819 41.4515 145.811 50.467C147.097 56.2558 148.678 62.0025 149.584 67.8441C150.796 75.6786 149.173 83.376 147.107 90.9047C143.83 102.873 137.791 113.217 129.339 122.432C120.602 131.954 109.567 136.878 97.6055 140.221C89.9857 142.34 82.2606 144.185 74.2088 143.985C57.1882 143.584 41.4534 139.335 27.7842 128.801C20.1855 122.949 13.7778 116.19 9.41464 107.417C5.34656 99.2558 1.76322 90.9995 0.498533 81.9525C-0.36567 75.7629 0.00325928 69.51 0.772611 63.2994C2.62749 48.2842 8.03398 34.6187 17.9091 23.2202C25.181 14.8374 33.9917 8.25771 44.8364 4.56717C56.3661 0.634109 68.2015 -0.188354 80.1211 0.0330811C87.4563 0.170166 94.7389 1.657 101.758 4.01895C102.759 4.35637 103.634 5.10498 104.572 5.66383L104.677 5.56889C102.496 5.23146 100.325 4.88359 98.2167 4.54616C96.4778 6.59178 96.2459 8.90094 96.4462 11.1258C96.8151 15.4912 97.2998 19.8566 98.1429 24.1376C98.7226 27.0584 99.3023 29.9475 96.8466 32.0353C94.3594 34.1547 91.5455 33.0476 88.8581 31.8877C85.1378 30.2955 82.0182 32.0248 81.7547 36.0739C81.4701 40.4814 79.3729 43.476 75.8001 45.7747C73.0705 47.5356 70.3198 49.3281 67.8115 51.3842C66.2518 52.6707 63.8067 54.2418 64.9449 56.5089C65.6615 57.9218 68.0012 58.7127 69.7613 59.377C73.608 60.8426 77.3072 59.2082 80.9327 58.2381C84.7373 57.2153 88.2046 57.6371 91.5771 59.4824C92.3148 59.8831 93.1475 60.2943 93.6533 60.9269C96.9837 65.1552 101.663 67.6015 105.984 70.5223C109.831 73.1057 112.581 76.3323 111.886 81.4357C111.717 82.7011 111.759 83.9981 111.844 85.2634C112.107 89.1965 114.278 90.873 118.125 89.9873C119.906 89.5866 121.613 88.8485 123.342 88.2159C129.908 85.8434 140.057 89.344 142.175 96.1452C141.596 95.5652 141.026 94.9748 140.436 94.3843C135.599 89.5445 129.317 86.1175 121.719 90.1771C120.264 90.9574 118.515 91.337 116.85 91.569C113.235 92.0646 110.811 90.0295 110.526 86.4233C110.421 85.1475 110.316 83.8293 110.537 82.5956C111.454 77.6081 108.492 74.5924 105.173 71.7876C104.003 70.7965 102.453 70.2482 101.199 69.3308C98.5961 67.4117 96.0984 65.3556 93.5163 63.3943C92.4097 62.5508 91.2926 61.6862 90.0701 61.043C86.4868 59.145 82.8614 59.1555 78.9724 60.4103C75.3365 61.5913 71.5002 62.0658 67.6535 60.9586C62.7212 59.5351 61.5725 55.8656 64.9555 52.0696C65.8935 51.0152 66.979 50.0873 68.075 49.191C69.835 47.7675 71.7005 46.4601 73.4394 45.0155C76.7276 42.295 79.4994 39.564 79.784 34.6082C80.0791 29.5258 84.9796 27.5751 89.5536 29.9686C90.0595 30.2217 90.5127 30.5802 91.0397 30.7911C94.9813 32.3938 97.205 30.749 96.6148 26.5839C96.3408 24.6227 95.6769 22.7141 95.3818 20.7634C94.5808 15.3331 92.9262 9.83937 96.4146 4.67261C96.5094 4.53554 96.2881 4.17705 96.1195 3.58656C83.4199 -0.17778 70.3937 1.44609 57.3885 2.25801C56.8404 2.28964 56.2291 2.05765 55.7338 2.23691C54.1635 2.78522 52.6248 3.48114 50.8858 4.18761C51.3179 4.98898 51.6341 5.59001 51.9608 6.19104C54.7853 11.3683 54.0265 14.5211 48.9572 17.4735C43.8247 20.4681 39.8198 24.6753 36.2892 29.3149C33.0221 33.5853 31.0408 38.3725 31.6626 43.9611C31.8628 45.7852 31.5782 47.6621 31.7468 49.4969C32.0841 53.0925 30.4084 55.3701 25.9399 56.7198C23.8004 57.363 21.4502 57.2891 19.2054 57.6054C13.5459 58.4068 8.17103 60.0412 3.56546 63.5841C2.98581 64.027 2.4694 64.9655 2.45886 65.6825C2.40617 70.6384 1.91081 75.6997 2.64854 80.5501C4.62989 93.6357 9.43574 105.667 17.6562 116.19C27.8686 129.234 41.1688 137.205 57.3463 140.505C66.7577 142.435 76.1585 142.446 85.6752 141.085C93.8957 139.915 101.863 137.838 109.314 134.411C124.491 127.42 135.135 115.726 141.87 100.511C142.439 99.2347 141.996 97.516 142.028 96.0081C143.303 96.0292 144.02 95.502 144.452 94.1945C147.74 84.4093 149.131 74.5608 147.392 64.1957C145.042 50.1822 140.942 37.0334 131.963 25.7404C131.489 25.1499 131.394 24.2641 131.12 23.505L131.057 23.5682Z" fill="#231F20"/>
<path d="M104.571 5.66294C105.53 5.86328 106.584 5.86332 107.438 6.2851C112.128 8.60486 116.797 10.9563 121.392 13.4553C122.245 13.9192 122.709 15.0896 123.352 15.9226L123.436 15.8278C119.6 13.7822 115.753 11.7576 111.928 9.68031C109.493 8.35172 107.09 6.93877 104.677 5.568L104.571 5.66294Z" fill="#231F20"/>
<path d="M123.353 15.9225C127.21 17.1772 129.486 20.0137 131.057 23.5671L131.12 23.5039C128.559 20.9522 125.998 18.3899 123.437 15.8276L123.353 15.9225Z" fill="#231F20"/>
<path d="M43.3404 78.9053C39.9258 82.8489 36.7957 87.1089 32.9701 90.5886C30.9149 92.4655 27.6794 93.1191 24.9077 94.1419C21.1979 95.5127 19.7119 97.7376 20.2389 101.628C20.534 103.885 21.6194 105.699 23.7905 106.542C26.0248 107.407 28.3328 108.061 30.6304 108.767C34.2769 109.895 38.0077 110.802 41.5805 112.12C47.4191 114.282 51.1077 119.101 55.1126 123.519C56.7251 125.301 58.3798 127.062 60.1819 128.654C62.5216 130.731 65.3671 131.469 68.4972 131.153C71.9224 130.805 73.6297 129.202 74.0618 125.828C74.1777 124.995 74.1778 124.12 74.0935 123.276C73.556 117.951 74.2727 112.879 76.3594 107.902C77.1498 106.015 77.1181 103.748 77.2235 101.639C77.3078 99.9203 76.2013 99.0978 74.494 99.14C74.0619 99.1506 73.6402 99.235 73.2187 99.235C68.729 99.3193 67.6541 98.4125 67.1482 94.0998C66.6529 89.7661 66.4842 85.3585 65.5989 81.1091C64.4397 75.5206 59.2018 72.6419 53.6793 74.076C52.4462 74.3923 51.2448 74.8247 50.0222 75.2043C50.4543 74.7298 50.8126 73.939 51.3185 73.823C53.2472 73.4012 55.2286 72.9056 57.1783 72.9688C63.1645 73.1586 66.3473 75.8791 67.3801 81.7945C68.0651 85.6854 68.2654 89.6607 68.7502 93.5937C69.2034 97.2948 69.5511 97.5584 73.2398 97.5584C77.7505 97.5584 79.7108 99.7516 79.1416 104.244C78.9941 105.361 78.8782 106.563 78.4039 107.554C75.7481 112.964 75.5057 118.763 75.6849 124.573C75.8008 128.306 74.4307 131.026 71.0793 132.439C67.8016 133.82 64.3238 133.852 61.4255 131.501C58.464 129.097 55.4393 126.619 53.0786 123.666C47.6404 116.897 40.632 113.09 32.285 111.53C28.6069 110.844 25.129 109.832 21.9778 107.765C18.795 105.688 18.1732 102.556 18.5104 99.1927C18.8372 95.8713 20.2599 92.8661 23.9486 92.4654C30.2509 91.7906 33.6024 87.0456 37.7337 83.2707C39.4727 81.6785 41.4645 80.3499 43.3404 78.9053Z" fill="#231F20"/>
<path d="M86.212 126.271C90.1325 125.48 92.6724 123.076 93.2836 119.353C93.6209 117.266 93.0201 114.756 89.9954 114.134C87.1288 116.833 86.2436 120.471 85.4531 125.206C84.7259 123.645 84.2938 123.097 84.2305 122.506C83.8933 119.353 85.1159 116.58 87.0972 114.324C87.9719 113.333 89.7952 112.721 91.1758 112.742C93.0096 112.753 94.053 114.292 94.5588 116.074C96.1081 121.515 92.4616 126.165 86.212 126.271Z" fill="#231F20"/>
</svg>
