<svg width="84" height="84" viewBox="0 0 84 84" fill="none" xmlns="http://www.w3.org/2000/svg">
<path d="M4.87827 81.1054C4.89902 77.8022 5.94867 75.4365 7.66837 72.7706C9.24596 74.3866 10.5301 75.7013 12.088 77.2963C9.46485 78.6823 7.39144 79.7779 4.87827 81.1054ZM14.4051 58.1752C19.671 60.917 25.0074 63.0817 29.2382 67.0706C23.9816 70.1557 19.0486 73.0517 14.1489 75.9268C11.951 74.0789 10.0695 72.4958 8.19634 70.919C10.2677 66.6671 12.228 62.6426 14.4051 58.1752ZM31.8115 65.3606C25.5903 62.0253 20.0123 59.0599 14.4673 56.0488C12.9841 55.2426 11.6648 55.459 11.0124 56.7308C6.7266 65.0867 2.41701 73.4425 0.0106735 82.4238C-0.0204391 82.537 0.0251923 82.6658 0.0366058 82.7963C1.54367 84.5228 3.25402 84.1594 5.02246 83.1569C11.5766 79.4428 17.9523 75.4503 24.7274 72.0813C34.1474 67.3957 40.1622 59.8314 46.8563 52.8368C53.2258 46.1819 59.3464 39.3416 65.4784 32.515C67.2313 30.563 69.0132 28.538 69.3379 25.8482C56.8094 39.1207 44.73 52.6688 31.8115 65.3606Z" fill="#444444"/>
<path d="M58.3247 9.91436C61.6677 6.33901 64.2887 4.35964 67.3858 2.98556C71.2909 1.25358 75.1431 1.63155 78.5888 4.4071C81.439 6.7024 82.6308 9.51266 81.4774 13.0214C80.2691 16.6953 77.9882 19.5667 74.3175 21.9451C69.5723 17.3198 62.6447 15.1505 58.3247 9.91436ZM67.9729 24.6869C64.2939 20.5756 58.4264 18.6227 54.0141 14.3288C54.9652 13.5135 55.823 12.7794 56.5325 12.1713C60.9759 15.0154 64.9567 17.4559 68.7944 20.0625C70.8003 21.4247 73.0023 22.8453 71.9796 26.3997C78.0297 22.0209 83.2033 18.1954 83.9325 11.65C84.3754 7.68024 82.6328 4.4272 78.903 2.11454C75.0653 -0.263847 70.9808 -0.713043 66.6836 1.16137C61.6728 3.34711 58.1505 7.02015 54.5255 10.5882C53.3524 11.7413 52.6585 13.3811 50.4129 13.3756C49.9991 13.3747 49.5095 13.8942 49.1776 14.2594C37.9477 26.6042 26.6711 38.9188 17.3632 52.5008C16.9068 53.1682 16.5956 53.9123 16.216 54.6208C16.4567 54.7724 16.6973 54.9258 16.9379 55.0782C17.8963 54.1232 18.9688 53.2394 19.7944 52.2032C24.1154 46.7771 28.1927 41.1932 32.7005 35.8922C37.955 29.7139 43.4978 23.7191 49.0593 17.7489C51.4366 15.197 51.7322 15.386 54.682 17.507C58.2407 20.0661 61.9229 22.4956 65.5884 24.937C66.0644 25.2548 66.7614 25.315 67.3557 25.494C67.5611 25.2246 67.7665 24.9562 67.9729 24.6869Z" fill="#444444"/>
</svg>
