<svg width="155" height="155" viewBox="0 0 155 155" fill="none" xmlns="http://www.w3.org/2000/svg">
<path d="M34.6863 76.6018C34.3934 98.7734 52.3967 119.385 76.6561 119.408C98.8671 119.429 119.057 101.828 118.8 75.9802C118.564 52.2713 100.203 33.8391 76.3994 33.8549C52.8085 33.8724 34.4916 53.914 34.6863 76.6018ZM120.162 76.4385C121.448 98.251 103.588 120.128 78.6725 121.263C55.16 122.335 34.812 104.685 33.0342 80.0663C31.1719 54.2915 50.0134 33.091 75.1082 31.9953C100.073 30.9049 121.345 52.2248 120.162 76.4385Z" fill="#231F20"/>
<path d="M41.9199 119.588C37.148 127.965 32.7748 135.658 28.3612 143.329C28.1932 143.62 27.6308 143.676 27.1631 143.881C27.3638 139.578 36.7741 123.872 41.9199 119.588Z" fill="#231F20"/>
<path d="M76.219 2.28882e-05C76.4593 0.676065 76.8582 1.33891 76.9133 2.03163C77.4163 8.27932 76.4249 23.4701 75.1871 25.766C74.1501 16.9318 75.3 8.58749 75.1475 0.23881C75.505 0.158915 75.8615 0.0799198 76.219 2.28882e-05Z" fill="#231F20"/>
<path d="M146.444 128.087C141.475 127.696 128.856 117.924 127.141 113.377C127.724 113.708 128.111 113.869 128.434 114.118C134.276 118.641 140.112 123.173 146.444 128.087Z" fill="#231F20"/>
<path d="M131.48 75.3153C135.821 73.8754 151.57 74.6437 155.001 76.4637C152.917 77.3399 134.71 76.4514 131.48 75.3153Z" fill="#231F20"/>
<path d="M85.4833 155C85.0604 147.032 84.6383 139.065 84.2051 130.897C85.8623 132.4 86.1216 133.6 86.3154 138.627C86.4188 141.322 86.8081 144.009 86.8538 146.703C86.9003 149.448 87.3654 152.248 86.5006 154.939C86.1612 154.96 85.8227 154.98 85.4833 155Z" fill="#231F20"/>
<path d="M34.2924 31.8334C29.3671 30.3496 19.9085 22.9579 18.7793 19.899C19.1161 19.8411 19.5666 19.6216 19.7285 19.7594C24.547 23.8262 29.8374 27.3206 34.2924 31.8334Z" fill="#231F20"/>
<path d="M18.3013 75.0677C12.4932 76.21 6.66779 77.145 0 76.4435C2.18441 74.1458 4.31712 75.1511 6.16819 74.8842C8.09936 74.6042 10.0417 74.3504 11.9875 74.2486C14.0453 74.1406 16.1117 74.2249 18.1747 74.2249C18.2178 74.5049 18.2591 74.7859 18.3013 75.0677Z" fill="#231F20"/>
<path d="M123.381 38.157C123.681 35.0314 127.374 29.4597 131.286 25.731C132.136 24.9224 132.948 24.0584 134.379 24.8741C130.782 29.2174 127.226 33.5125 123.381 38.157Z" fill="#231F20"/>
</svg>
