<svg width="32" height="32" viewBox="0 0 32 32" fill="none" xmlns="http://www.w3.org/2000/svg">
<path fill-rule="evenodd" clip-rule="evenodd" d="M10.667 2.66675H21.3337C25.7519 2.66675 29.3337 6.24847 29.3337 10.6667V21.3334C29.3337 25.7517 25.7519 29.3334 21.3337 29.3334H10.667C6.24871 29.3334 2.66699 25.7517 2.66699 21.3334V10.6667C2.66699 6.24847 6.24871 2.66675 10.667 2.66675ZM10.667 5.33341C7.72147 5.33341 5.33366 7.72123 5.33366 10.6667V21.3334C5.33366 24.2789 7.72147 26.6667 10.667 26.6667H21.3337C24.2792 26.6667 26.667 24.2789 26.667 21.3334V10.6667C26.667 7.72123 24.2792 5.33341 21.3337 5.33341H10.667ZM16.0003 22.6667C12.3184 22.6667 9.33366 19.682 9.33366 16.0001C9.33366 12.3182 12.3184 9.33341 16.0003 9.33341C19.6822 9.33341 22.667 12.3182 22.667 16.0001C22.667 19.682 19.6822 22.6667 16.0003 22.6667ZM16.0003 20.0001C18.2095 20.0001 20.0003 18.2092 20.0003 16.0001C20.0003 13.7909 18.2095 12.0001 16.0003 12.0001C13.7912 12.0001 12.0003 13.7909 12.0003 16.0001C12.0003 18.2092 13.7912 20.0001 16.0003 20.0001ZM22.667 10.6667C21.9306 10.6667 21.3337 10.0698 21.3337 9.33341C21.3337 8.59703 21.9306 8.00008 22.667 8.00008C23.4034 8.00008 24.0003 8.59703 24.0003 9.33341C24.0003 10.0698 23.4034 10.6667 22.667 10.6667Z" fill="#444444"/>
</svg>
