<svg width="32" height="32" viewBox="0 0 32 32" fill="none" xmlns="http://www.w3.org/2000/svg">
<rect width="32" height="32" rx="16" fill="#FCDDD3"/>
<path fill-rule="evenodd" clip-rule="evenodd" d="M12.4 7H19.6C22.5823 7 25 9.41766 25 12.4V19.6C25 22.5823 22.5823 25 19.6 25H12.4C9.41766 25 7 22.5823 7 19.6V12.4C7 9.41766 9.41766 7 12.4 7ZM12.4 8.8C10.4118 8.8 8.8 10.4118 8.8 12.4V19.6C8.8 21.5882 10.4118 23.2 12.4 23.2H19.6C21.5882 23.2 23.2 21.5882 23.2 19.6V12.4C23.2 10.4118 21.5882 8.8 19.6 8.8H12.4ZM16 20.5C13.5147 20.5 11.5 18.4853 11.5 16C11.5 13.5147 13.5147 11.5 16 11.5C18.4853 11.5 20.5 13.5147 20.5 16C20.5 18.4853 18.4853 20.5 16 20.5ZM16 18.7C17.4912 18.7 18.7 17.4912 18.7 16C18.7 14.5088 17.4912 13.3 16 13.3C14.5088 13.3 13.3 14.5088 13.3 16C13.3 17.4912 14.5088 18.7 16 18.7ZM20.5 12.4C20.0029 12.4 19.6 11.9971 19.6 11.5C19.6 11.0029 20.0029 10.6 20.5 10.6C20.9971 10.6 21.4 11.0029 21.4 11.5C21.4 11.9971 20.9971 12.4 20.5 12.4Z" fill="#F05624"/>
</svg>
