<svg width="65" height="62" viewBox="0 0 65 62" fill="none" xmlns="http://www.w3.org/2000/svg">
<path d="M33.1074 22.9039C31.1859 22.3377 31.7958 20.9814 31.6843 19.8794C31.4324 17.4207 31.498 14.8479 30.7748 12.5264C28.5763 5.43505 22.6293 1.47486 15.7206 2.03887C9.22722 2.56636 4.07994 7.44414 2.90015 14.3513C2.14283 18.7908 2.7881 23.0997 4.15312 27.324C6.77071 35.4177 11.2481 42.5931 15.4947 49.8671C17.4483 53.2117 19.7655 56.3455 21.9438 59.6088C26.0923 57.5738 29.9334 55.7347 33.7274 53.8099C40.805 50.2203 47.9471 46.7067 54.0531 41.5231C57.4911 38.6069 60.5368 35.4012 62.2314 30.9936C64.4493 25.2345 60.5712 15.5094 53.5812 13.8062C47.6402 12.361 42.5265 13.8106 38.0158 17.6278C36.2327 19.1328 34.8 21.0591 33.1074 22.9039ZM34.1627 18.3476C34.9802 17.6353 35.7374 16.8924 36.5754 16.2582C41.9308 12.2066 47.6712 10.0422 54.5086 12.186C62.9334 14.8277 66.9585 26.1064 63.3837 32.9035C61.0475 37.3424 57.9099 40.9234 54.0334 43.9243C47.1396 49.2637 39.3548 53.0962 31.56 56.8792C28.1699 58.5246 24.7391 60.0888 21.4721 61.6261C15.5619 54.5286 11.4303 46.8098 7.29611 39.1105C4.14176 33.2246 1.34052 27.1741 0.870219 20.3672C0.542551 15.6878 0.931696 11.1674 3.75951 7.1074C7.46376 1.78775 12.7197 -0.376571 18.8652 0.225544C24.6603 0.79108 29.0825 4.10377 31.5244 9.44907C32.7336 12.103 33.2206 15.0858 34.1627 18.3476Z" fill="#444444"/>
</svg>
