<svg width="299" height="299" viewBox="0 0 299 299" fill="none" xmlns="http://www.w3.org/2000/svg">
<path fill-rule="evenodd" clip-rule="evenodd" d="M92.2227 54.9807C115.38 48.1398 138.456 51.8457 162.239 57.3212C192.929 64.3869 235.151 60.8843 247.232 90.6681C259.347 120.534 221.082 144.355 209.521 173.884C198.493 202.053 206.261 239.386 182.139 256.935C155.482 276.329 116.255 279.503 86.9778 263.038C59.3969 247.526 57.5985 210.1 45.894 180.31C35.1183 152.884 12.3261 125.848 22.3851 98.6365C32.4335 71.4535 64.8544 63.0657 92.2227 54.9807Z" fill="#FDBF4D"/>
<path fill-rule="evenodd" clip-rule="evenodd" d="M122.129 34.1105C146.206 32.283 167.99 40.7507 190.094 51.0967C218.617 64.4475 260.633 69.8861 266.193 101.542C271.768 133.286 229.355 148.544 211.853 174.987C195.158 200.214 194.915 238.346 167.647 250.441C137.513 263.806 98.4931 258.675 73.3251 236.431C49.615 215.475 55.7131 178.505 50.523 146.922C45.7447 117.845 29.1356 86.627 44.6828 62.1332C60.2135 37.6652 93.6729 36.2702 122.129 34.1105Z" fill="#FDBF4D" fill-opacity="0.42"/>
</svg>
