<svg width="198" height="207" viewBox="0 0 198 207" fill="none" xmlns="http://www.w3.org/2000/svg">
<path d="M114.704 86.8767C113.364 88.0055 111.996 89.0859 110.71 90.2561C108.783 92.0096 106.859 93.7747 105.029 95.6287C102.158 98.5399 98.8986 98.9381 95.2499 97.3788C92.6355 96.2607 90.021 95.1444 87.3962 94.0527C86.0464 93.491 84.6736 92.9849 82.7126 92.2199C83.1529 93.8792 83.325 94.7821 83.6305 95.6382C85.1442 99.877 86.6226 104.132 88.262 108.323C88.962 110.113 88.9801 111.793 88.1612 113.435C87.4264 114.911 86.5741 116.349 85.604 117.68C83.2637 120.892 80.8248 124.032 78.1131 127.614C79.3613 127.696 80.0326 127.825 80.6884 127.769C85.657 127.359 90.6241 126.927 95.589 126.473C100.367 126.036 100.806 126.386 103.014 130.615C104.82 134.076 106.858 137.423 108.93 140.735C109.66 141.903 110.663 143.11 112.572 142.303C112.641 141.792 112.723 141.219 112.795 140.646C113.4 135.83 113.918 131 114.637 126.201C115.094 123.151 116.843 121.05 119.933 120.186C122.33 119.515 124.722 118.814 127.081 118.023C129.017 117.373 130.902 116.571 132.81 115.835C132.805 115.573 132.8 115.309 132.796 115.046C131.683 114.454 130.583 113.837 129.457 113.272C126.699 111.886 123.974 110.423 121.155 109.172C117.057 107.353 115.268 104.191 115.409 99.8535C115.493 97.2502 115.845 94.6556 115.885 92.0532C115.911 90.3989 116.732 88.505 114.704 86.8767ZM87.8106 111.604C83.5258 102.991 80.8052 93.7874 81.639 90.2753C82.9556 90.6086 84.3216 90.8052 85.5703 91.299C89.1034 92.6952 92.6083 94.1672 96.0856 95.6975C99.0779 97.0138 101.653 96.3709 103.931 94.2291C106.18 92.1155 108.321 89.8856 110.593 87.7967C112.141 86.375 113.809 84.4126 116.131 85.6544C118.196 86.7579 117.804 89.1401 117.709 91.1507C117.575 93.9939 117.303 96.831 117.218 99.675C117.112 103.165 118.367 105.849 121.772 107.405C125.55 109.131 129.257 111.022 132.916 112.987C133.847 113.488 135.104 114.555 135.086 115.335C135.067 116.176 133.879 117.381 132.938 117.738C129.173 119.167 125.356 120.516 121.464 121.534C117.893 122.468 116.442 124.726 116.104 128.147C115.661 132.625 115.148 137.098 114.6 141.564C114.227 144.597 111.87 145.768 109.571 143.774C107.644 142.104 106.114 139.893 104.708 137.728C103.358 135.65 102.335 133.351 101.276 131.097C100.247 128.911 98.8008 127.816 96.2256 128.178C92.2382 128.736 88.2225 129.109 84.2101 129.461C82.2005 129.637 80.1669 129.708 78.1536 129.619C76.2427 129.533 75.6078 128.4 76.581 126.738C77.5353 125.109 78.7615 123.636 79.8984 122.116C82.5203 118.613 85.1605 115.122 87.8106 111.604Z" fill="#444444"/>
<path d="M145.342 74.3218C149.252 64.7731 152.897 55.064 161.169 48.1479C161.408 48.258 161.647 48.3673 161.886 48.4767C161.732 49.0604 161.766 49.8389 161.395 50.1979C154.826 56.5483 151.499 64.8719 147.523 72.8041C147.167 73.5125 146.617 74.1245 146.157 74.7816C145.886 74.6284 145.614 74.4747 145.342 74.3218Z" fill="#444444"/>
<path d="M73.4654 71.0258C71.1721 68.2557 68.7153 65.6037 66.6274 62.688C64.1482 59.2261 61.9485 55.562 59.7134 51.9331C59.1418 51.0057 58.4624 49.8445 60.1739 48.6252C63.4758 56.9144 70.0091 62.9556 74.1916 70.4905C73.9495 70.6685 73.7073 70.8465 73.4654 71.0258Z" fill="#444444"/>
<path d="M24.3573 139.188C25.0308 138.674 25.6286 137.954 26.3886 137.678C32.3423 135.511 38.3671 133.635 44.765 133.629C44.8248 133.867 44.8847 134.105 44.9438 134.342C38.2588 136.16 31.5732 137.978 24.8875 139.795C24.7111 139.593 24.5344 139.39 24.3573 139.188Z" fill="#444444"/>
<path d="M181.41 96.5374C180.958 97.0557 180.684 97.6407 180.241 97.8299C177.468 99.0176 161.463 101.17 159.11 100.745C161.245 99.3831 178.397 96.0721 181.41 96.5374Z" fill="#444444"/>
<path d="M110.418 55.5429C110.161 48.4922 112.828 40.8556 116.786 37.7778C117.344 40.2603 114.899 41.4076 114.611 43.4148C114.297 45.6091 113.448 47.7255 112.835 49.8754C112.268 51.8633 111.703 53.8526 111.137 55.8416C110.898 55.7418 110.658 55.6427 110.418 55.5429Z" fill="#444444"/>
<path d="M69.1323 160.407C68.1402 166.783 65.9348 172.21 64.0721 177.727C63.9946 177.955 63.3012 177.974 62.8359 178.107C62.8919 174.306 66.6527 163.445 69.1323 160.407Z" fill="#444444"/>
<path d="M49.0046 95.9581C43.2356 95.0584 37.4669 94.1674 31.7044 93.226C31.5037 93.1941 31.3827 92.6682 30.969 91.8954C37.6018 91.1921 43.3381 93.3128 49.1296 95.1193C49.0879 95.3989 49.0463 95.6785 49.0046 95.9581Z" fill="#444444"/>
</svg>
