<svg width="64" height="64" viewBox="0 0 64 64" fill="none" xmlns="http://www.w3.org/2000/svg">
<path d="M62.241 32.6523C60.6431 31.7331 59.8107 31.1992 58.9304 30.7562C55.1416 28.8527 51.3527 26.9709 47.5543 25.0919C44.6648 23.6616 42.9617 21.4352 42.8947 18.1733C42.8469 15.6346 42.866 13.093 42.9234 10.5542C42.9904 7.81858 43.2583 5.07827 42.7512 2.15521C40.1774 2.61146 38.8379 4.21405 37.374 5.56199C35.4987 7.29519 33.8053 9.21292 31.9108 10.9243C28.6482 13.8758 25.0698 15.3439 20.6781 13.1497C18.0374 11.8349 15.2723 10.7653 12.5359 9.65875C10.9572 9.01886 9.42634 8.05999 7.27357 8.19062C7.69456 9.55843 8.00067 10.628 8.36425 11.6787C9.8664 16.0075 11.2538 20.378 12.9378 24.6357C14.0859 27.5502 13.5979 30.1173 11.9905 32.5699C10.8041 34.3788 9.40717 36.0562 8.09637 37.7904C6.22107 40.2865 4.33623 42.7798 2.15476 45.6801C3.61864 45.8003 4.37449 45.9736 5.10164 45.9026C10.2205 45.4028 15.3489 44.9523 20.4485 44.2896C25.443 43.6403 26.7537 44.2168 29.0308 48.679C30.0259 50.6119 30.9636 52.5779 32.0926 54.4285C33.346 56.4901 34.7046 58.5083 36.1972 60.4062C36.9339 61.3462 37.9482 62.3884 39.5364 61.4153C40.1296 56.2715 40.7898 51.0965 41.3065 45.9083C41.7753 41.341 43.9663 38.3309 48.6068 37.2253C50.6064 36.7482 52.5965 36.2153 54.5484 35.5574C56.9212 34.7566 59.2367 33.7967 62.241 32.6523ZM12.3924 28.6274C9.80905 20.7651 6.24018 14.0973 5.20685 6.6685C6.93864 5.31867 8.32602 5.85826 9.7899 6.46597C13.9328 8.18591 18.1427 9.76291 22.2664 11.5349C24.9837 12.7002 27.3374 12.1436 29.4232 10.3659C31.6621 8.45665 33.6904 6.32018 35.8719 4.34465C37.2879 3.05824 38.704 1.71408 40.3114 0.696507C42.5598 -0.718643 44.4639 0.0632286 44.8274 2.67297C45.1623 5.04227 44.8848 7.49302 44.8848 9.90871C44.8848 12.6955 44.8179 15.4841 44.8944 18.268C44.971 20.6647 46.3391 22.29 48.4441 23.3426C52.7975 25.5274 57.17 27.6855 61.5329 29.8646C62.6619 30.4278 64.3267 30.8793 63.944 32.3835C63.6857 33.4276 62.5471 34.555 61.5042 35.0481C59.4376 36.0316 57.1795 36.6251 54.9789 37.3426C52.6635 38.1008 50.329 38.8042 48.004 39.5529C45.4398 40.3802 43.9472 42.0794 43.5932 44.7743C42.9138 49.9304 42.1197 55.0721 41.5074 60.2348C41.3256 61.7039 41.1821 63.0822 39.68 63.7382C38.0056 64.469 36.7043 63.5413 35.4892 62.5351C32.3509 59.9159 30.4086 56.3481 28.9352 52.7682C26.8207 47.6358 24.2278 44.6966 18.0374 46.3901C14.4973 47.3594 10.6797 47.3717 6.98653 47.7427C5.33129 47.9103 3.62819 48.1167 1.99209 47.9141C0.116785 47.6832 -0.562533 46.1203 0.509068 44.5471C2.16431 42.1229 4.04922 39.8567 5.8097 37.5045C8.09642 34.4498 10.3544 31.3763 12.3924 28.6274Z" fill="#231F20"/>
</svg>
