<svg width="137" height="101" viewBox="0 0 137 101" fill="none" xmlns="http://www.w3.org/2000/svg">
<path d="M108.542 87.7617C107.263 84.7463 106.117 81.6781 104.675 78.719C103.329 75.9305 101.672 73.2601 99.6548 69.6495C98.9297 71.2273 98.2507 71.9318 98.4419 72.4062C101.784 80.49 105.226 88.5676 109.193 97.9158C112.187 86.77 121.01 80.4752 126.663 72.0431C119.488 75.9412 113.879 81.183 109.918 87.9332C109.459 87.8758 109 87.8185 108.542 87.7617Z" fill="#444444"/>
<path d="M110.856 63.8674C109.616 58.1495 107.574 52.6736 103.451 47.9429C102.598 52.2778 104.937 57.2445 110.856 63.8674Z" fill="#444444"/>
<path d="M59.5945 18.2632C52.086 14.8167 47.4885 14.1952 42.0799 15.9056C45.0593 18.1184 55.3915 19.5008 59.5945 18.2632Z" fill="#444444"/>
<path d="M91.143 33.2694C87.2408 28.6681 82.8826 24.7379 77.126 22.4092C79.8774 28.1728 85.4642 30.8519 91.143 33.2694Z" fill="#444444"/>
<path d="M15.0931 16.6824C18.3845 19.5941 21.6761 19.3727 25.772 17.6782C21.714 15.3929 18.4389 15.7988 15.0931 16.6824Z" fill="#444444"/>
</svg>
