<svg width="104" height="105" viewBox="0 0 104 105" fill="none" xmlns="http://www.w3.org/2000/svg">
<ellipse cx="61.3337" cy="45.0714" rx="42.6667" ry="44.5714" fill="#53BFA9"/>
<mask id="path-2-inside-1_104_592" fill="white">
<path fill-rule="evenodd" clip-rule="evenodd" d="M56.7822 76.8727C57.4392 77.5261 58.0293 78.16 58.5559 78.7744C58.6167 78.8171 58.6785 78.8591 58.7413 78.9006L58.6942 78.937C70.5686 93.0145 48.8302 96.734 32.8007 89.6198C14.6854 81.58 6.27719 59.8143 14.0203 41.0048C21.7634 22.1953 43.4685 11.6604 61.5837 19.7003C94.9104 34.4912 94.0954 77.2474 57.8891 73.7781C57.8523 73.7923 57.816 73.807 57.7803 73.8222C57.1171 74.1057 56.6773 74.563 56.5165 75.1364C56.3695 75.661 56.4621 76.2612 56.7822 76.8727Z"/>
</mask>
<path d="M58.5559 78.7744L57.0755 80.0872L57.2436 80.2833L57.4539 80.4309L58.5559 78.7744ZM56.7822 76.8727L55.0392 77.7977L55.1876 78.081L55.4134 78.3056L56.7822 76.8727ZM58.7413 78.9006L59.9558 80.5187L62.1902 78.7923L59.7951 77.2113L58.7413 78.9006ZM58.6942 78.937L57.4797 77.3189L55.8219 78.5997L57.2033 80.2374L58.6942 78.937ZM57.8891 73.7781L58.0375 71.7674L57.583 71.7239L57.1592 71.8871L57.8891 73.7781ZM57.7803 73.8222L58.5747 75.6871L58.5747 75.687L57.7803 73.8222ZM56.5165 75.1364L54.6118 74.5478L54.6118 74.5478L56.5165 75.1364ZM60.0363 77.4616C59.4706 76.8015 58.8427 76.1277 58.1511 75.4398L55.4134 78.3056C56.0357 78.9245 56.5881 79.5185 57.0755 80.0872L60.0363 77.4616ZM59.7951 77.2113C59.7484 77.1804 59.7026 77.1493 59.6579 77.1179L57.4539 80.4309C57.5307 80.4849 57.6085 80.5379 57.6874 80.5899L59.7951 77.2113ZM59.9087 80.5551L59.9558 80.5187L57.5268 77.2825L57.4797 77.3189L59.9087 80.5551ZM32.0393 91.4692C40.377 95.1696 50.3074 96.1277 56.8069 94.1625C60.0266 93.1889 62.9281 91.3196 63.8174 88.1319C64.7112 84.9285 63.3101 81.3414 60.185 77.6366L57.2033 80.2374C60.0155 83.5713 60.35 85.7282 60.0066 86.9593C59.6587 88.206 58.3503 89.4614 55.6159 90.2882C50.2074 91.9235 41.2539 91.1842 33.562 87.7704L32.0393 91.4692ZM12.1922 40.1935C4.04744 59.9788 12.87 82.9616 32.0393 91.4692L33.562 87.7704C16.5009 80.1984 8.50694 59.6498 15.8483 41.8161L12.1922 40.1935ZM62.345 17.8508C43.058 9.29092 20.2849 20.5348 12.1922 40.1935L15.8483 41.8161C23.2419 23.8558 43.8789 14.0299 60.8224 21.5497L62.345 17.8508ZM57.7406 75.7888C67.1701 76.6923 74.5466 74.6042 79.6743 70.4646C84.8083 66.32 87.4838 60.2803 87.7893 53.7204C88.3986 40.6365 79.652 25.532 62.345 17.8508L60.8224 21.5497C76.8421 28.6595 84.3513 42.3286 83.8332 53.4532C83.575 58.9976 81.341 63.9208 77.1806 67.2795C73.0139 70.6432 66.7111 72.5985 58.0375 71.7674L57.7406 75.7888ZM58.5747 75.687C58.5886 75.6811 58.6033 75.6751 58.6189 75.6691L57.1592 71.8871C57.1012 71.9094 57.0435 71.9328 56.9859 71.9574L58.5747 75.687ZM58.4213 75.7251C58.4153 75.7464 58.4068 75.7658 58.3979 75.7812C58.3892 75.7962 58.3835 75.8016 58.3865 75.7984C58.3931 75.7915 58.443 75.7434 58.5747 75.6871L56.986 71.9574C55.9188 72.4135 54.9712 73.2656 54.6118 74.5478L58.4213 75.7251ZM58.5252 75.9477C58.4555 75.8146 58.4357 75.7302 58.4305 75.6966C58.426 75.667 58.4332 75.6827 58.4213 75.7251L54.6118 74.5478C54.2893 75.698 54.5413 76.8465 55.0392 77.7977L58.5252 75.9477Z" fill="#444444" mask="url(#path-2-inside-1_104_592)"/>
<path d="M47.1599 85.5015C49.4434 85.5015 51.2309 83.5903 51.2309 81.3128C51.2309 79.0352 49.4434 77.124 47.1599 77.124C44.8764 77.124 43.0889 79.0352 43.0889 81.3128C43.0889 83.5903 44.8764 85.5015 47.1599 85.5015Z" stroke="#444444" stroke-width="2"/>
<ellipse cx="29.9147" cy="48.6894" rx="5.6696" ry="5.88689" fill="#444444"/>
<ellipse cx="44.5622" cy="34.9533" rx="5.6696" ry="5.88689" fill="#444444"/>
<ellipse cx="65.3503" cy="40.8403" rx="5.6696" ry="5.88689" fill="#444444"/>
</svg>
