<svg width="458" height="424" viewBox="0 0 458 424" fill="none" xmlns="http://www.w3.org/2000/svg">
<path fill-rule="evenodd" clip-rule="evenodd" d="M158.074 355.892C130.344 339.017 113.063 313.095 96.8826 284.946C76.0028 248.622 34.2684 210.091 52.6142 172.427C71.0106 134.659 129.147 151.713 168.681 137.542C206.395 124.023 236.08 84.0724 275.22 92.6315C318.473 102.09 357.17 137.957 367.52 181.024C377.271 221.596 342.082 255.751 323.388 293.05C306.177 327.389 300.248 373.218 264.355 386.863C228.5 400.493 190.847 375.837 158.074 355.892Z" fill="#53BFA9" fill-opacity="0.37"/>
<path fill-rule="evenodd" clip-rule="evenodd" d="M127.821 130.243C152.43 109.07 182.41 100.636 214.167 93.9378C255.146 85.2936 304.667 57.4865 334.799 86.5829C365.014 115.76 330.838 165.811 332.092 207.81C333.287 247.876 362.088 288.469 341.858 323.069C319.501 361.305 273.45 387.045 229.316 383.586C187.738 380.327 166.147 336.287 136.47 306.972C109.148 279.984 67.4179 260.18 65.54 221.808C63.664 183.477 98.7357 155.266 127.821 130.243Z" fill="#53BFA9"/>
</svg>
