<svg width="112" height="112" viewBox="0 0 112 112" fill="none" xmlns="http://www.w3.org/2000/svg">
<ellipse cx="46.5455" cy="46.952" rx="46.5455" ry="46.952" fill="#FDBF4D"/>
<path d="M24.7452 69.3453C23.7625 68.503 23.198 68.0199 22.2529 67.2095C22.3447 69.0142 23.0093 69.3785 24.7452 69.3453ZM85.8546 40.8519C84.9439 39.2635 83.6863 39.0427 82.3809 38.9477C81.0123 38.8475 79.6124 38.9324 78.277 38.6733C75.0455 38.0453 74.1501 35.9356 75.7221 33.0416C76.4581 31.6874 77.2942 30.346 77.7591 28.8949C78.4357 26.782 77.4236 25.7341 75.2719 26.0615C73.8306 26.2803 72.3969 26.5452 70.9582 26.7769C67.0501 27.4054 65.1349 25.8369 64.9309 21.8197C64.8792 20.7897 65.0495 19.7259 64.8499 18.7317C64.642 17.6953 64.3766 16.202 63.6624 15.837C62.3531 15.1676 61.6299 16.6851 60.8831 17.5594C59.8831 18.7291 59.0923 20.089 58.0266 21.1873C55.8825 23.3953 53.1013 23.2281 51.1052 20.8548C50.3341 19.9378 49.6983 18.9084 48.963 17.9589C48.4407 17.2831 47.9356 16.5562 47.28 16.0297C46.1977 15.1606 45.1818 15.4407 44.588 16.7228C44.2673 17.4164 44.1378 18.1969 43.8974 18.9301C43.4701 20.2319 43.1499 21.588 42.5568 22.8114C41.5339 24.9249 39.9127 25.6454 37.6685 24.8854C36.2285 24.3985 34.9224 23.5172 33.5531 22.819C32.439 22.2505 31.3204 21.6914 30.321 21.1879C28.8555 22.2938 28.7362 23.5082 29.08 24.8471C29.4843 26.4227 29.9926 27.9766 30.2987 29.57C30.9945 33.1903 29.5003 35.2126 25.8689 35.5827C24.5048 35.7218 23.1177 35.6197 21.7459 35.7039C21.2006 35.7378 20.6681 35.979 19.8403 36.2043C20.3933 37.0753 20.7542 37.7333 21.2 38.3274C22.0763 39.4958 23.0966 40.566 23.8843 41.7887C25.7981 44.7612 25.3709 47.0464 22.5495 49.1421C21.5884 49.8549 20.4755 50.3585 19.4864 51.0374C18.5553 51.6762 17.6956 52.419 16.3799 53.449C17.6669 53.8887 18.3671 54.1146 19.0572 54.3667C20.7364 54.9787 22.508 55.4235 24.0654 56.2639C26.5947 57.6289 27.059 59.8969 25.5539 62.3735C25.1094 63.1055 24.5411 63.7641 24.1272 64.5107C23.2529 66.0882 23.6241 67.1227 25.3339 67.6913C26.2994 68.0129 27.3313 68.1724 28.3466 68.2982C32.1935 68.7723 33.4747 70.1386 33.564 73.9515C33.5723 74.2955 33.564 74.6401 33.5729 74.9841C33.6902 79.1467 34.3573 79.6413 38.3668 78.5367C42.1997 77.4805 44.0332 78.134 46.3316 81.3496C46.9789 82.2552 47.5816 83.2137 48.352 84.0043C49.4566 85.1383 50.6058 85.146 51.7461 84.0522C52.4176 83.407 52.9993 82.6259 53.4655 81.8167C55.8946 77.5973 59.3697 77.8085 62.3996 80.6234C63.149 81.3202 63.9832 81.9699 64.8773 82.46C66.3677 83.2756 67.3517 82.7804 67.6508 81.1167C67.8626 79.9349 67.964 78.7307 68.0647 77.5328C68.3466 74.1908 69.404 73.0607 72.6782 72.9165C74.4753 72.8373 76.2827 73.0147 78.0844 72.9892C80.6857 72.9528 81.1289 72.2024 80.039 69.778C79.7954 69.2369 79.4472 68.7436 79.1564 68.2228C78.6124 67.2509 78.0952 66.2625 77.5289 65.3027C75.8522 62.4635 78.9625 57.5287 82.4389 58.403C82.8477 58.5064 83.2954 58.5051 83.7214 58.4834C84.8732 58.4234 86.3514 58.8969 86.8298 57.3711C87.2889 55.9097 86.1652 55.0106 85.1302 54.2129C83.8368 53.2174 82.4491 52.3322 81.2335 51.2519C79.4574 49.6737 79.2973 47.6195 80.7737 45.7491C81.4019 44.9539 82.2743 44.3554 83.0141 43.6445C83.9809 42.7166 84.9274 41.7657 85.8546 40.8519ZM17.7683 35.1832C19.6943 34.7697 20.9041 34.4194 22.1381 34.2726C23.2408 34.1424 24.3721 34.2758 25.4876 34.2253C28.3874 34.0952 29.3249 33.0269 28.9257 30.1188C28.705 28.5101 28.1629 26.946 27.925 25.3385C27.7656 24.2625 27.6795 23.0947 27.9276 22.0564C28.3804 20.165 29.8549 19.5223 31.6826 20.2734C32.5481 20.6289 33.349 21.1471 34.1666 21.6142C35.1347 22.1681 36.0461 22.8439 37.0582 23.2944C39.5537 24.4061 40.6372 23.9735 41.6767 21.4553C42.1321 20.3519 42.451 19.1822 42.7296 18.0182C43.1212 16.3788 43.604 14.7247 45.4261 14.2812C47.3986 13.8007 48.6052 15.1746 49.6677 16.5907C50.5414 17.7547 51.3035 19.0176 52.2767 20.0897C53.8424 21.8159 55.8034 21.7667 57.3666 20.029C58.1089 19.2033 58.6841 18.2301 59.3914 17.3692C60.0961 16.5115 60.7772 15.5926 61.635 14.9098C63.2893 13.5933 65.0986 14.1185 65.64 16.1312C66.0354 17.6021 66.1732 19.1733 66.2095 20.7048C66.3211 25.3059 67.3084 26.1004 71.8797 25.2159C73.2203 24.9568 74.6029 24.8413 75.9702 24.8101C78.5225 24.7507 79.8158 26.3372 79.1985 28.7959C78.9523 29.7793 78.4326 30.6983 78.0034 31.6313C77.6807 32.3326 77.2853 33.0007 76.9536 33.6982C75.946 35.8144 76.3554 36.651 78.7195 37.0185C80.0741 37.2291 81.4606 37.2195 82.8305 37.3363C83.5109 37.3938 84.2016 37.4518 84.861 37.6165C86.8482 38.1123 87.766 39.6541 86.8655 41.4811C86.2909 42.6477 85.2737 43.693 84.2341 44.5155C80.8184 47.2168 80.7597 48.0445 84.0428 51.0674C85.178 52.1134 86.2239 53.2582 87.375 54.2856C88.4146 55.2135 89.1059 56.2913 88.7118 57.6774C88.28 59.1981 87.09 60.0947 85.5887 60.4329C84.5071 60.6767 83.3694 60.6614 82.268 60.8331C81.2986 60.9849 80.3452 61.2357 79.0544 61.514C79.9236 63.8451 80.7673 65.8036 81.3719 67.8336C81.7782 69.1979 82.0486 70.6683 82.0148 72.083C81.9689 74.0402 80.6347 75.2699 78.6781 75.231C77.064 75.1985 75.4422 74.9113 73.8485 74.6063C71.4952 74.1564 70.4301 74.8169 70.14 77.2202C69.9971 78.409 70.0908 79.6241 70.0303 80.8251C69.8727 83.945 67.448 85.4836 64.7166 84.0701C63.128 83.2488 61.7211 82.0835 60.1994 81.125C57.496 79.4218 56.7575 79.6043 55.0311 82.3254C54.1141 83.7708 53.2735 85.2111 51.5567 85.9762C49.9725 86.682 48.6664 86.4172 47.5752 85.2794C46.5115 84.1728 45.6276 82.8901 44.6901 81.6655C43.039 79.5085 42.5249 79.386 40.2099 80.7185C38.7106 81.5813 37.2144 82.3917 35.3816 82.2194C33.4001 82.0337 32.3306 81.2979 31.9224 79.3809C31.6035 77.8838 31.4824 76.3331 31.4039 74.7996C31.2254 71.3287 30.2362 70.4053 26.772 70.6306C25.7478 70.697 24.7101 70.882 23.7012 70.7831C21.5558 70.5719 20.6483 69.376 21.1369 67.2465C21.3977 66.1112 21.9991 65.0168 22.6171 64.0079C24.3951 61.1049 24.2057 59.9652 21.3818 58.0686C20.6764 57.5944 19.871 57.2709 19.1375 56.8357C18.1803 56.2671 17.165 55.7546 16.3257 55.0412C14.8984 53.8281 14.9699 52.5932 16.4635 51.4063C17.2001 50.8211 18.0361 50.3597 18.841 49.8645C19.5693 49.4165 20.3314 49.0209 21.0546 48.5633C24.2337 46.5519 24.5367 44.8838 22.258 41.8245C21.5922 40.9304 20.7893 40.134 20.1649 39.2138C19.4181 38.113 18.7957 36.9273 17.7683 35.1832Z" fill="#444444"/>
<path d="M92.8451 86.13C97.7724 84.8965 102.557 85.1645 107.94 85.1205C106.687 83.8442 105.949 82.9373 105.062 82.2118C99.3514 77.5392 93.6098 72.9043 87.8675 68.2701C87.731 68.1603 87.4676 68.2076 87.0997 68.1597C87.2489 68.8119 87.3784 69.2969 87.4676 69.7895C87.835 71.8099 88.3866 73.8201 88.5065 75.8558C88.7195 79.4549 86.7483 81.3324 83.1775 81.132C81.7254 81.0503 80.2892 80.7185 78.8402 80.5621C77.0718 80.372 75.2816 80.1818 73.5667 81.8097C74.5291 83.0031 75.2854 84.2634 76.3377 85.1868C80.5277 88.8626 84.8063 92.4375 89.0601 96.0405C90.3267 97.1126 91.62 98.1534 93.2896 99.5293C93.1162 96.7967 92.928 94.6729 92.8598 92.546C92.7922 90.4197 92.8451 88.2895 92.8451 86.13ZM111.763 86.9947C106.039 86.2666 100.327 86.0445 94.2654 87.1868C93.7845 92.6838 94.8661 98.2396 94.6703 104.1C93.3846 103.066 92.0575 102.253 91.0531 101.147C86.5385 96.1745 81.5015 91.7885 76.3562 87.4957C74.9576 86.3285 73.8837 84.6821 72.9315 83.0931C71.8856 81.3458 72.4041 80.1416 74.4136 79.6381C75.8747 79.2712 77.4486 79.2361 78.9684 79.2635C80.3293 79.2884 81.6807 79.6343 83.043 79.7798C85.7859 80.0727 87.2725 78.9476 87.0907 76.1889C86.9071 73.3861 86.1864 70.6185 85.717 67.8336C85.5812 67.0295 85.4995 66.2159 85.6609 65.2344C90.4319 68.3773 94.5243 72.2234 98.889 75.7205C103.28 79.238 107.632 82.8033 112.001 86.3476C111.921 86.5633 111.842 86.779 111.763 86.9947Z" fill="#444444"/>
<path d="M20.6793 109.092C23.634 107.023 38.2384 89.2794 38.8742 86.9986C36.8303 87.3484 34.8322 87.8072 32.8086 88.0107C28.8036 88.4134 27.1014 86.9444 26.7245 82.8653C26.5434 80.9049 26.509 78.9311 26.3744 76.9656C26.3381 76.434 26.178 75.9108 26.0638 75.3288C25.6927 75.4979 25.4988 75.5291 25.3929 75.6427C20.1181 81.2795 14.837 86.9112 9.60044 92.5837C8.96014 93.2781 8.56153 94.1951 7.74138 95.5026C12.1877 95.5026 16.0008 95.5026 19.9128 95.5026C20.3662 100.194 19.451 104.684 20.6793 109.092ZM18.5537 96.6775C15.7738 96.6775 13.2962 96.6245 10.8211 96.6928C8.43015 96.7585 5.99908 96.1504 3.39453 97.3105C3.73317 95.322 4.95254 94.2257 6.01885 93.1013C7.19549 91.8607 8.62467 90.8569 9.77644 89.5972C12.6074 86.5002 15.3095 83.2859 18.1277 80.1762C19.967 78.1481 21.84 76.1379 23.8426 74.2745C25.4114 72.8138 26.4911 72.7417 28.3163 73.5203C27.4031 76.5655 27.5492 79.6842 28.0313 82.8136C28.5664 86.2903 29.824 87.2482 33.2646 86.617C35.1983 86.2616 37.1058 85.7613 39.0311 85.3548C39.7518 85.2022 40.4884 85.1289 41.172 85.0261C41.8136 86.3037 41.1095 87.058 40.5611 87.7651C38.1453 90.8754 35.734 93.9928 33.2187 97.0234C29.7723 101.176 26.2297 105.249 22.738 109.365C21.9663 110.273 21.2355 111.216 20.2036 112C18.1539 107.008 18.8069 101.959 18.5537 96.6775Z" fill="#444444"/>
<path d="M56.5119 56.5741C56.3499 57.6998 55.8977 58.9079 56.709 60.3731C57.6407 58.8339 56.878 57.726 56.5119 56.5741ZM64.1247 63.7055C62.4774 63.1803 61.2363 62.7846 59.9959 62.389C60.4347 62.9703 61.2223 63.0961 61.5093 63.5428C62.5615 65.1841 63.9263 64.5651 65.2732 64.3966C65.3976 61.8631 65.353 61.784 63.3377 61.1369C63.5781 61.9231 63.779 62.5766 64.1247 63.7055ZM44.9859 64.2888C48.9272 64.9901 55.5476 64.8063 56.8831 63.999C53.6656 62.8223 53.5898 62.8344 48.938 63.9506C48.5739 64.0373 48.1275 63.7814 47.7187 63.6857C47.6989 63.5051 47.6798 63.3252 47.6594 63.1452C48.8181 62.6921 49.9763 62.239 51.1344 61.7859C51.1096 61.6749 51.0834 61.5639 51.0586 61.4528C49.0522 61.4528 47.0452 61.4528 44.9859 61.4528C44.9859 62.5358 44.9859 63.4298 44.9859 64.2888ZM53.6503 33.5803C53.6172 33.9096 53.5591 34.2388 53.5547 34.5688C53.51 38.3511 53.4335 42.1347 53.445 45.917C53.4571 49.9584 53.54 53.9992 53.6248 58.04C53.6433 58.92 53.6114 59.8887 55.04 60.597C54.4552 51.4153 55.1816 42.5246 53.6503 33.5803ZM49.6376 31.6913C50.7543 31.5484 51.7556 31.3474 52.7639 31.3116C53.6752 31.2785 54.5929 31.4253 55.7364 31.5101C56.6656 35.706 56.4947 40.2668 56.9462 44.7626C57.3818 49.1071 57.8269 53.4517 58.3052 57.7924C58.3582 58.2755 58.6579 58.7317 58.8231 59.1491C60.4423 59.2576 61.9729 59.2461 63.4627 59.4867C65.7675 59.8594 67.3842 62.4375 66.7618 64.6691C66.6508 65.0686 66.1457 65.4336 65.7356 65.6512C65.3791 65.8401 64.9002 65.8497 64.4748 65.8503C57.811 65.8611 51.1472 65.858 44.1881 65.858C43.7162 64.3341 43.2289 62.7616 42.7092 61.084C45.4591 59.061 48.6045 60.4248 51.8283 59.7789C52.1536 52.0152 50.4852 44.247 50.6013 36.2911C50.1293 36.9516 49.6523 37.6089 49.1874 38.2739C47.7352 40.3485 45.6868 41.5221 43.2806 42.0958C42.8947 42.1877 42.4184 41.9031 41.3916 41.6421C43.9094 40.3658 46.1638 39.852 47.6938 37.9893C49.2084 36.1463 49.6293 34.0717 49.6376 31.6913Z" fill="#444444"/>
</svg>
