<svg width="85" height="68" viewBox="0 0 85 68" fill="none" xmlns="http://www.w3.org/2000/svg">
<path d="M64.5083 41.3361C64.1136 44.4117 62.3089 46.7865 60.3925 49.0062C58.8498 50.7929 56.952 52.269 55.2345 53.9111C54.5158 54.5957 53.764 54.3337 53.0261 54.0556C52.1705 53.7399 51.3438 53.3442 50.2969 52.8896C49.8712 57.9764 50.522 62.6405 52.4416 67.4329C51.5524 67.3207 51.0663 67.3313 50.6252 67.1922C47.4746 66.2242 44.8138 64.3627 42.2621 62.373C38.8361 59.6932 35.67 56.73 34.0027 52.5954C33.314 50.8838 32.9338 49.0384 32.5424 47.2251C32.329 46.2355 31.9766 45.6097 30.9901 45.1444C21.4832 40.6514 14.4323 33.5321 9.44704 24.3804C6.51674 19.0049 4.32649 13.2977 3.27255 7.21614C2.96776 5.46173 2.32984 3.91058 0.900515 2.75524C0.626201 2.53059 0.383447 2.2364 0.217147 1.92617C-0.239508 1.07037 0.0299716 0.30014 0.970019 0.107582C1.63736 -0.0314865 2.45602 -0.068924 3.05224 0.198517C5.16494 1.14526 7.36695 1.23083 9.60424 1.1506C23.306 0.658508 34.8379 5.80941 44.8886 14.7578C46.8185 16.4749 48.6237 18.3363 50.4327 20.1871C51.0417 20.8074 51.5615 21.1497 52.4866 20.8502C57.013 19.39 61.201 20.54 65.0542 22.9095C67.677 24.5248 70.094 26.4826 72.5339 28.3814C74.5033 29.9058 76.3701 31.5691 78.4454 33.3075C77.0027 34.1633 75.7733 33.206 74.5632 33.4412C73.2302 33.698 71.8506 33.698 70.5057 33.9013C69.2294 34.0992 67.9695 34.404 66.7071 34.6821C65.4515 34.9656 64.2024 35.2705 62.8174 35.5968C63.4409 36.886 64.0751 38.2071 64.7243 39.5282C65.0697 40.229 65.2414 40.8867 64.4419 41.4109C64.4377 39.9989 63.4532 39.0681 62.7704 37.9931C62.2571 37.1802 61.786 36.3403 61.1689 35.2975C65.8285 33.5269 70.2956 32.5159 75.3643 32.211C74.1857 31.243 73.4291 30.6063 72.6585 29.986C70.5838 28.3171 68.6037 26.5093 66.4023 25.0275C62.3715 22.3157 58.0541 20.4491 52.9977 21.7273C52.5876 21.8291 52.1315 21.7328 51.7059 21.7917C50.8385 21.9145 50.2434 21.5776 49.63 20.9572C47.5591 18.8551 45.4982 16.7262 43.2797 14.7848C36.4924 8.84752 28.7025 4.88941 19.8416 2.99059C16.198 2.20966 12.5533 2.17757 8.87915 2.20432C6.7841 2.22036 4.70133 2.22571 2.74905 1.24153C2.39132 1.05967 1.8657 1.21479 1.41707 1.21479C1.31868 1.32176 1.22081 1.42874 1.12242 1.53571C3.69445 3.28477 4.11314 6.01266 4.79652 8.64962C5.49754 11.3561 6.23386 14.0625 7.17498 16.6943C7.94926 18.8551 8.95722 20.9466 10.0154 22.9898C14.2141 31.0932 20.048 37.6883 28.0239 42.2883C29.2672 43.0049 30.4008 43.9142 31.6601 44.5989C32.9872 45.321 33.569 46.3747 33.7803 47.8349C34.2776 51.2634 35.7021 54.307 38.0324 56.8797C40.9525 60.0998 44.2764 62.8329 48.1216 64.9028C48.8408 65.2881 49.5691 65.6625 50.4824 66.1385C48.76 57.051 48.5355 53.5475 49.5627 51.3545C50.5444 51.7715 51.5599 52.1301 52.5106 52.6167C53.6009 53.1783 54.3928 53.1035 55.4051 52.2422C58.5648 49.552 61.317 46.578 63.1912 42.8338C63.4784 42.2561 64.0618 41.8282 64.5083 41.3361Z" fill="#444444"/>
<path d="M73.6012 49.9691C73.6472 49.8086 73.6937 49.643 73.7397 49.4825C75.3209 49.5786 76.902 49.6749 78.772 49.7873C76.9801 47.6317 75.0241 46.1289 72.6248 45.2354C70.1399 44.3101 69.3095 44.5616 67.5433 46.578C66.9273 47.284 66.2246 47.9153 65.6589 48.6586C64.528 50.135 63.2954 51.5792 62.4206 53.2051C61.5169 54.8848 60.8132 56.6766 61.3634 58.7572C62.25 62.1109 64.636 63.9617 67.7641 65.7213C67.3893 63.2074 65.7952 61.528 65.3552 59.3617C68.047 61.3034 70.8698 62.8812 74.0145 63.7423C77.0646 64.5822 80.1211 65.5022 83.5043 65.5182C82.4797 62.3303 81.0034 59.6987 79.2473 57.2489C77.4598 54.7563 75.4903 52.3921 73.6012 49.9691ZM68.1614 62.6245C68.6822 64.4591 69.117 65.9996 69.6838 68C66.0332 66.2134 62.9746 64.5178 61.1298 61.314C59.5069 58.4952 59.8684 55.6069 61.3073 52.8629C62.8569 49.8995 65.1771 47.5676 67.5347 45.2087C69.6164 43.1226 71.5382 43.4545 73.7402 44.4866C77.5897 46.2945 80.4767 49.0385 82.1931 53.4674C80.0521 52.2371 78.3741 50.7127 75.7208 50.8036C79.7355 55.6656 83.3674 60.4369 84.9999 66.7376C79.0158 66.62 73.66 65.0849 68.1614 62.6245Z" fill="#444444"/>
<path d="M18.0079 14.8115C18.0288 12.533 18.9784 11.5649 21.1804 11.5702C24.8283 11.5863 27.3047 15.432 25.7893 18.7376C24.9797 20.4973 23.183 21.4868 21.2195 21.2409C18.9971 20.968 16.9374 19.3634 16.5904 17.625C16.3503 16.427 16.7748 15.5873 18.0496 14.7421C17.4101 17.9888 18.163 19.3634 20.9238 20.0694C22.2611 20.4064 23.4124 20.032 24.2081 19.0103C25.0096 17.9833 25.4871 16.7853 24.9262 15.3946C23.922 12.9021 20.1591 11.1744 18.0079 14.8115Z" fill="#444444"/>
</svg>
