<svg width="190" height="144" viewBox="0 0 190 144" fill="none" xmlns="http://www.w3.org/2000/svg">
<path d="M95.7687 78.7395C96.8603 78.007 96.857 77.9622 95.7846 77.0748C95.7793 77.6285 95.7752 78.057 95.7687 78.7395ZM91.9229 76.6872C91.8438 76.6174 91.5464 76.1818 91.1713 76.0962C90.978 76.0521 90.6058 76.6057 90.3911 76.9392C90.2245 77.197 90.0856 77.5363 90.0992 77.8327C90.1159 78.2097 90.1935 78.7585 90.4386 78.9056C90.7184 79.0735 91.284 79.0054 91.5964 78.821C92.2782 78.4173 92.3865 77.7472 91.9229 76.6872ZM91.3047 108.434C91.1531 109.739 91.805 110.536 92.8693 111.142C94.5469 112.098 96.3389 112.179 98.1417 111.811C99.8153 111.469 101.019 109.802 100.998 108.279C97.7713 108.331 94.5451 108.382 91.3047 108.434ZM103.801 104.106C98.5624 106.079 93.1099 105.497 87.6431 105.603C88.1829 106.97 89.3426 107.265 90.4945 107.33C93.0508 107.473 95.614 107.528 98.1737 107.522C99.1752 107.519 100.193 107.33 101.173 107.098C102.933 106.682 103.693 105.791 103.801 104.106ZM90.1191 75.374C89.4014 75.4304 88.8215 75.4043 88.2772 75.5311C85.7823 76.1111 85.3243 77.3977 86.9152 79.437C87.5745 80.2814 88.3401 81.0476 89.1004 81.8066C90.6612 83.365 91.754 85.2089 92.2753 87.3357C92.7224 89.158 93.019 91.0203 93.3138 92.8756C93.5643 94.4529 93.7169 96.0456 93.9287 97.76C95.1341 97.7344 96.1743 97.712 97.2879 97.6881C97.3029 97.1479 97.3357 96.7254 97.3227 96.3046C97.2525 93.9968 97.1377 91.6895 97.1027 89.382C97.0651 86.902 97.6195 84.6748 99.9391 83.2866C100.394 83.0143 100.827 82.6859 101.215 82.3245C102.073 81.525 102.925 80.7154 103.722 79.856C104.306 79.2271 104.403 78.4146 104.267 77.581C104.116 76.6572 103.569 76.1468 102.806 76.1937C101.77 76.2582 101.267 76.7482 101.215 77.7496C101.204 77.9643 101.235 78.1839 101.203 78.3942C101.087 79.162 100.631 79.5385 100.035 79.3813C99.4212 79.219 99.1786 78.6835 99.4257 77.9825C99.5139 77.7304 99.6361 77.4854 99.7763 77.2581C100.155 76.6427 99.9571 76.1525 99.509 75.6648C98.5166 74.584 97.4661 74.7262 96.5764 76.0849C96.8151 76.5611 97.0741 77.029 97.2865 77.5167C97.5366 78.0922 97.6556 78.7529 97.0536 79.1139C96.6457 79.3583 95.9154 79.5472 95.6017 79.3407C95.2022 79.0784 94.9332 78.4075 94.8747 77.8838C94.8131 77.3341 95.0675 76.7498 95.2042 76.081C94.2581 75.6209 93.4531 74.8633 92.3187 75.3312C92.5809 76.1381 92.8857 76.8331 93.0231 77.5597C93.1905 78.4491 92.7247 79.1163 91.998 79.586C91.3289 80.0184 90.2625 79.987 89.7232 79.5467C89.0221 78.975 89.0736 78.2164 89.2861 77.4746C89.4618 76.8616 89.7524 76.2829 90.1191 75.374ZM98.0878 97.6688C99.6864 97.5769 101.291 97.5549 102.877 97.3721C104.166 97.2233 104.356 96.9194 104.191 95.7021C104.055 94.6927 103.917 93.6694 103.625 92.6986C103.159 91.1439 103.732 90.0936 104.984 89.2749C105.207 89.1286 105.43 88.9779 105.64 88.8129C111.105 84.5282 113.511 78.8553 112.735 71.9704C112.028 65.7033 108.536 61.2249 102.986 58.4135C96.4168 55.0856 89.9509 55.3414 83.7775 59.3876C80.864 61.2969 78.5223 63.7556 77.3264 67.1679C75.5236 72.3152 75.5562 77.3821 77.8162 82.4094C79.3478 85.8165 81.7557 88.2812 85.3051 89.4931C86.1927 89.7963 86.6159 90.3283 86.7938 91.1844C87.0892 92.607 87.3877 94.0298 87.714 95.4457C87.9165 96.325 88.1736 97.192 88.4148 98.0991C90.0393 97.9857 91.5118 97.8826 92.9564 97.7814C93.0128 97.6053 93.0843 97.5 93.0705 97.4073C92.6521 94.536 92.3127 91.6495 91.7733 88.8007C91.2736 86.159 90.0766 83.8272 88.0983 81.937C87.4005 81.27 86.7322 80.5576 86.1414 79.7953C84.346 77.4766 84.9576 75.6246 87.7477 74.8085C87.9016 74.7636 88.0594 74.7296 88.2173 74.7022C89.7257 74.441 91.2693 74.6691 92.788 74.3225C93.3408 74.1959 94.0383 74.5457 94.628 74.7837C95.01 74.9377 95.3156 75.284 95.5579 75.4691C97.8232 73.5419 98.6089 73.6316 100.96 75.8927C101.287 75.7865 101.636 75.6649 101.991 75.5594C103.624 75.075 104.52 75.5804 105.017 77.2363C105.522 78.9218 104.728 80.1956 103.643 81.2807C102.664 82.2603 101.604 83.1959 100.45 83.9519C98.5179 85.2194 97.9223 87.0371 97.9519 89.1991C97.9904 91.9856 98.0409 94.7715 98.0878 97.6688ZM104.216 101.113C105.064 101.512 104.95 102.171 104.711 102.88C104.58 103.268 104.333 103.704 104.41 104.06C104.772 105.747 103.92 106.71 102.594 107.441C102.361 107.57 102.12 107.683 101.914 107.788C101.853 107.927 101.773 108.023 101.774 108.117C101.813 110.96 99.4801 112.645 97.0274 112.769C95.7889 112.832 94.5831 112.792 93.407 112.317C91.637 111.602 90.3256 110.552 90.4188 108.386C89.026 107.811 87.3938 107.623 86.853 105.914C86.5544 104.971 86.3895 104.026 87.0347 103.167C85.5483 101.03 85.5776 100.684 87.4273 98.2398C86.9973 96.1318 86.5944 94.0221 86.1236 91.9273C85.9796 91.2848 85.8982 90.6225 85.0367 90.3058C80.1573 88.5111 77.3321 84.8186 75.9943 79.9281C74.6262 74.929 74.9098 69.9812 77.2205 65.329C79.3136 61.1148 82.8277 58.417 87.1491 56.6835C92.0264 54.7263 96.8573 54.9142 101.664 56.9C105.094 58.3169 108.143 60.3251 110.273 63.4376C113.912 68.7544 114.68 74.5082 112.606 80.6169C111.283 84.5152 108.878 87.5736 105.544 89.9302C105.072 90.2635 104.675 90.703 104.236 91.1004C104.506 92.6472 104.817 94.1201 105.009 95.6082C105.243 97.4246 104.985 97.7897 103.195 98.1411C102.205 98.3352 101.182 98.3915 100.171 98.4382C96.5984 98.6047 93.0255 98.7957 89.4497 98.853C88.3816 98.8702 87.7543 99.4737 87.1521 100.085C86.3906 100.858 86.9654 102.15 88.1368 102.408C88.6522 102.522 89.2085 102.543 89.7344 102.492C93.9281 102.087 98.1583 101.926 102.246 100.774C103.016 100.558 103.796 100.313 104.5 99.9445C105.01 99.6774 105.403 99.1849 105.813 98.8242C106.11 99.5055 106.022 99.9486 105.321 100.464C104.985 100.711 104.619 100.916 104.269 101.14C99.1821 102.445 94.0196 103.233 88.7584 103.292C88.0008 103.301 87.7006 103.586 87.7208 104.476C88.3004 104.581 88.861 104.779 89.4169 104.767C92.6196 104.702 95.8277 104.682 99.0191 104.445C100.375 104.344 101.737 103.861 103.014 103.347C103.887 102.997 104.701 102.337 104.216 101.113Z" fill="#444444"/>
<path d="M58.8809 96.6621C56.4928 98.5598 54.2258 100.555 52.5351 103.111C50.8657 105.636 49.6807 108.386 48.8489 111.298C48.0092 114.237 47.3858 117.215 47.232 120.34C49.5226 117.623 50.9469 114.22 53.9022 112.076C51.34 116.079 48.4782 119.876 46.234 124.325C46.0868 121.913 44.286 120.526 43.3482 118.662C43.0206 118.012 42.659 117.379 42.4702 116.635C44.04 117.715 44.648 119.554 46.0779 121.075C46.1955 120.452 46.3046 120.017 46.3562 119.575C46.9005 114.905 47.9137 110.362 49.915 106.088C51.6079 102.471 53.9991 99.4214 57.2336 97.0656C57.8639 96.6066 57.8579 96.5985 58.8809 96.6621Z" fill="#444444"/>
<path d="M155.923 102.424C153.095 102.274 150.515 102.137 147.772 101.991C148.61 100.975 149.665 101.353 150.581 101.303C151.578 101.249 152.582 101.306 153.944 101.318C151.409 99.897 149.211 98.5864 146.943 97.4148C144.275 96.0372 141.586 94.685 138.83 93.5026C136.919 92.6829 134.91 92.0296 132.885 91.569C131.64 91.2858 130.282 91.5054 128.89 91.4986C128.791 90.9864 129.284 90.877 129.638 90.7656C131.24 90.2607 132.859 90.5226 134.377 91.0261C136.813 91.8344 139.279 92.6528 141.563 93.8066C145.87 95.9809 150.055 98.3979 154.295 100.707C154.37 100.747 154.492 100.699 154.791 100.679C154.5 98.6828 153.533 96.8774 153.265 94.9009C155.076 97.0656 155.55 99.6802 155.923 102.424Z" fill="#444444"/>
<path d="M121.368 17.0493C123.613 14.8905 125.851 12.7385 128.184 10.4962C128.871 11.9121 128.752 13.5414 129.121 15.0513C129.494 16.5774 129.75 18.1317 129.898 19.7124C128.932 18.2096 128.557 16.5225 128.198 14.429C123.826 21.7549 119.98 28.9242 118.299 37.0953C117.381 36.9404 117.608 36.3461 117.712 35.9615C118.212 34.0965 118.703 32.2236 119.323 30.3976C121.147 25.0263 123.919 20.1177 126.748 15.2428C127.016 14.7814 127.377 14.3753 127.697 13.9449C128.097 13.407 128.146 12.8766 127.645 12.3142C125.638 13.9649 124.092 16.1554 121.701 17.3199C121.662 17.3392 121.546 17.1973 121.368 17.0493Z" fill="#444444"/>
<path d="M72.0427 53.3154C71.2125 53.4383 70.9551 52.8058 70.5415 52.4462C67.7499 50.0173 65.0214 47.5099 62.1474 45.1853C60.4107 43.7803 58.4491 42.6568 56.3703 41.2603C56.3106 42.7373 57.1739 43.839 56.636 45.3131C55.8065 44.1857 55.8913 42.9892 55.405 42.0314C54.9123 41.0617 54.4888 40.0401 53.8748 39.1523C53.2465 38.2439 52.4243 37.4705 51.6276 36.5714C56.1228 37.7781 60.5217 38.9597 64.9499 40.1494C63.7779 40.5866 63.6487 40.5941 59.7562 39.6834C58.0422 39.2823 56.3496 38.7874 54.572 38.3152C54.8328 39.3312 55.3808 39.927 56.2521 40.3924C61.6446 43.2738 66.312 47.1356 70.6726 51.3908C71.2098 51.9147 71.9047 52.3836 72.0427 53.3154Z" fill="#444444"/>
<path d="M132.044 43.3047C133.463 42.2536 135.102 41.6825 136.81 41.2957C141.094 40.3267 145.442 39.8703 149.83 39.7591C154.858 39.6313 159.876 39.7904 164.873 40.42C165.648 40.5175 166.405 40.7591 167.171 40.9333C167.163 41.0594 167.156 41.186 167.148 41.3121C166.72 41.3219 166.286 41.3842 165.866 41.3329C158.84 40.4734 151.802 40.3006 144.753 40.8768C141.604 41.1345 138.501 41.6761 135.469 42.5641C134.707 42.7872 134.005 43.2069 133.261 43.4983C132.913 43.6344 132.531 43.68 132.164 43.7668C132.124 43.6128 132.083 43.4588 132.044 43.3047Z" fill="#444444"/>
<path d="M16.303 88.4354C17.6076 87.8583 18.8841 87.2037 20.2215 86.7174C28.2771 83.7878 36.6112 81.8814 44.9719 80.0813C45.0827 80.0571 45.2353 80.2246 45.4119 80.328C45.1364 81.1114 44.3998 81.0785 43.8361 81.2115C41.3428 81.7999 38.8349 82.327 36.3327 82.8791C30.5248 84.1607 24.896 86.046 19.2748 87.952C18.3313 88.272 17.4989 88.9708 16.303 88.4354Z" fill="#444444"/>
<path d="M12.3921 90.2823C13.4861 87.7641 18.8103 83.3901 23.6822 80.8953C23.3267 81.7846 22.8644 82.2462 21.6854 83.0916C19.6882 84.5228 17.6954 85.9622 15.7442 87.455C15.0345 87.9978 14.4485 88.7041 13.6163 89.5219C16.5211 90.1589 19.1948 89.8553 21.9302 89.7659C21.8386 90.1041 21.8224 90.3682 21.756 90.3813C18.6779 90.9889 15.6042 90.8178 12.3921 90.2823Z" fill="#444444"/>
<path d="M160.629 44.2491C164.2 43.0167 168.024 43.1377 171.847 42.4933C170.394 40.3442 168.269 38.9875 167.075 36.685C168.178 37.0866 171.785 40.6569 173.75 43.2307C171.437 43.467 169.247 43.665 167.065 43.9208C164.937 44.1705 162.816 44.4793 160.691 44.7619C160.67 44.5911 160.65 44.4199 160.629 44.2491Z" fill="#444444"/>
<path d="M120.048 69.3924C124.046 67.0094 127.992 64.4957 132.85 64.2563C132.907 64.3613 132.963 64.4662 133.02 64.5711C132.806 64.7399 132.608 65.0307 132.377 65.0591C128.286 65.5594 124.83 67.659 121.246 69.4399C120.925 69.5987 120.561 69.6695 120.217 69.7813C120.161 69.6519 120.104 69.5221 120.048 69.3924Z" fill="#444444"/>
<path d="M95.0095 48.5622C94.9328 46.9343 94.7652 45.3044 94.802 43.6801C94.8458 41.7513 95.0452 39.8259 95.2222 37.9035C95.2674 37.4121 95.3369 36.8067 96.2848 36.8337C95.2297 40.732 95.9496 44.7008 95.4165 48.5671C95.2809 48.5653 95.1453 48.5635 95.0095 48.5622Z" fill="#444444"/>
<path d="M58.8211 59.7813C59.2034 59.7795 59.6141 59.6826 59.963 59.7906C62.6981 60.6342 65.38 61.6024 67.6898 63.3484C67.6469 63.4507 67.6041 63.5529 67.5611 63.6548C64.6567 62.4854 61.7522 61.3157 58.8476 60.1459C58.8387 60.0246 58.8301 59.9029 58.8211 59.7813Z" fill="#444444"/>
<path d="M127.04 87.2782C126.736 87.3419 126.479 87.4785 126.268 87.4259C124.945 87.0977 118.588 83.5023 117.854 82.7056C118.994 82.797 126.079 86.2868 127.04 87.2782Z" fill="#444444"/>
<path d="M112.537 53.0625C114.355 50.4433 117.386 48.4118 119.648 48.3808C119.177 49.4306 117.984 49.1773 117.336 49.8242C116.628 50.5314 115.749 51.0646 114.945 51.6742C114.201 52.2377 113.459 52.8026 112.715 53.3668C112.656 53.2653 112.596 53.1639 112.537 53.0625Z" fill="#444444"/>
<path d="M69.2238 79.6853C67.1379 81.7192 64.8715 83.0783 62.7046 84.5634C62.6149 84.6245 62.3596 84.4419 62.1555 84.3631C63.2057 83.0044 67.506 80.1059 69.2238 79.6853Z" fill="#444444"/>
<path d="M79.428 50.8902C77.5906 48.9887 75.7508 47.0905 73.9271 45.1757C73.8633 45.1093 73.9621 44.8861 74.0223 44.4938C76.6058 46.0519 78.1006 48.3858 79.7005 50.6212C79.6096 50.7109 79.5188 50.8006 79.428 50.8902Z" fill="#444444"/>
</svg>
