<svg width="106" height="136" viewBox="0 0 106 136" fill="none" xmlns="http://www.w3.org/2000/svg">
<ellipse cx="62.6712" cy="43.52" rx="43.3285" ry="43.52" fill="#53BFA9"/>
<path d="M64.7134 107.622C65.8739 112.783 66.9002 117.712 69.7786 122.158C70.3246 122.035 70.8011 121.928 71.3299 121.809C69.914 116.869 68.5329 112.052 67.1217 107.13C66.2484 107.308 65.5398 107.453 64.7134 107.622ZM67.8273 106.27C69.263 111.374 70.6837 116.422 72.1542 121.648C80.32 120.067 88.4085 118.617 96.8779 118.183C97.2132 119.833 97.5529 121.502 97.8926 123.171C96.4784 122.073 96.7704 120.363 95.8936 118.96C87.3959 119.693 78.9845 120.983 70.6626 122.941C70.5745 123.149 70.4713 123.394 70.3741 123.624C70.2369 123.654 70.071 123.732 70.0301 123.693C69.3262 123.021 68.5118 123.321 67.7585 123.502C62.8262 124.687 57.9007 125.899 52.9752 127.109C50.7363 127.659 48.5013 128.222 46.264 128.779C46.6605 130.317 47.0462 131.812 47.4319 133.308C46.212 132.118 45.7764 130.675 45.4858 129.145C45.1362 129.049 44.7793 128.951 44.2401 128.802C44.5342 128.568 44.6735 128.372 44.8567 128.325C47.8653 127.548 50.8739 126.77 53.8937 126.033C58.4253 124.927 62.9663 123.855 67.5009 122.76C67.8879 122.666 68.2547 122.499 68.5101 122.408C67.5379 119.861 66.4759 117.384 65.6542 114.837C64.8454 112.331 64.2808 109.754 63.5847 107.116C63.309 107.089 62.9706 106.999 62.6477 107.034C49.2314 108.538 37.1273 105.371 26.4689 97.5928C19.5371 92.5343 14.5532 86.0357 11.6228 78.1515C9.89517 73.5037 9.00552 68.7261 8.88083 63.8402C8.77548 59.7253 9.41358 55.6532 10.5277 51.6644C11.9582 46.5425 14.1606 41.7457 17.3111 37.3512C17.5338 37.0402 17.6817 36.6808 17.8834 36.3091C16.5216 34.7224 15.1805 33.1606 13.7564 31.5014C11.9311 33.0747 10.5406 34.8844 9.18999 36.7097C5.0299 42.3307 2.5519 48.5871 1.56208 55.3674C0.212358 64.6153 0.794125 73.7451 3.80229 82.6637C6.49227 90.6399 10.8145 97.6648 17.6512 103.155C22.6597 107.177 28.3023 110.084 34.5698 111.937C38.1722 113.002 41.8447 113.799 45.5903 114.113C48.693 114.373 51.8306 114.386 54.948 114.316C57.487 114.259 60.0179 113.907 62.5548 113.711C62.9741 113.678 63.4049 113.778 63.8306 113.816C63.8388 113.943 63.8469 114.07 63.8551 114.197C61.8454 114.501 59.8429 114.996 57.8237 115.07C54.0072 115.208 50.1683 115.284 46.3638 115.041C43.5005 114.858 40.6489 114.248 37.8402 113.632C32.6224 112.485 27.6866 110.615 23.1129 107.953C15.1982 103.346 9.27126 97.0392 5.46461 89.0243C3.32501 84.5202 1.80717 79.8196 0.976009 74.9113C0.240307 70.564 -0.133352 66.2085 0.0433717 61.8188C0.434657 52.0837 3.03176 43.0145 9.32242 35.1124C10.5032 33.6291 11.7935 32.2231 13.0985 30.7048C12.0163 29.5919 10.9228 28.468 9.82938 27.3442C9.93515 27.2461 10.0409 27.1484 10.1467 27.0503C11.7325 27.5713 12.5181 29.0347 13.8239 30.1056C16.3363 28.1432 18.8556 26.0831 22.3484 25.602C22.3961 26.5419 21.6999 26.4702 21.2764 26.6021C18.7954 27.3743 16.7697 28.8136 14.8606 30.4325C14.7385 30.5359 14.6727 30.6987 14.502 30.9507C15.7318 32.4812 16.9809 34.0353 18.3439 35.7319C18.9295 35.068 19.4782 34.4705 19.9985 33.8513C24.5438 28.44 30.1053 24.2502 36.7511 21.365C45.2665 17.6681 54.1285 17.097 63.2308 18.7643C63.521 18.8172 63.7773 19.0366 64.1239 19.2173C63.6315 19.8291 63.0983 19.6407 62.6284 19.5332C59.0531 18.7142 55.4223 18.5974 51.7683 18.7053C48.2712 18.8083 44.8842 19.4974 41.5699 20.4845C34.9232 22.4644 29.1872 25.9195 24.2816 30.5493C20.0316 34.5604 16.6468 39.163 14.1877 44.394C12.242 48.5338 10.9568 52.803 10.2606 57.2753C9.52623 61.9922 9.7666 66.6469 10.6094 71.3308C11.3266 75.3188 12.6926 79.0783 14.5919 82.6624C17.2956 87.7644 20.9715 92.1578 25.5977 95.853C30.8083 100.016 36.6617 103.024 43.2043 104.793C53.1176 107.474 62.9375 107.279 72.6663 103.876C79.7396 101.402 85.8987 97.6278 91.1767 92.5608C92.4968 91.2936 93.6633 89.8836 94.8139 88.4088C92.8081 89.192 90.8856 90.1017 88.3423 88.9689C89.2835 88.8419 89.8631 88.6905 90.4406 88.6982C92.6748 88.7279 94.3207 87.7205 95.6017 86.1073C98.2078 82.8252 99.0811 77.1428 96.6164 73.3922C95.2616 71.33 92.6 70.5318 89.9203 71.6333C89.0801 71.9789 88.6824 72.6489 88.6931 73.465C88.7168 75.2088 87.7902 76.478 86.5402 77.6092C85.4115 78.6314 84.2965 79.6689 83.133 80.6552C82.3431 81.3244 82.0039 82.1381 81.9226 83.1102C81.8147 84.3969 82.2404 84.9537 83.6021 85.088C84.5223 85.1792 85.4588 85.1369 86.3738 85.2533C87.6745 85.4182 88.6157 86.1 89.078 87.2833C89.1545 87.4791 89.0345 87.7441 88.9924 88.0771C88.7125 87.9248 88.4915 87.8788 88.4442 87.7673C87.7923 86.2327 86.443 85.9551 84.9088 85.9274C84.1637 85.914 83.391 85.8818 82.6828 85.6885C81.4131 85.3416 80.9865 84.7299 80.9912 83.5144C80.9968 82.1438 81.4307 80.9361 82.5336 79.9836C83.6025 79.0608 84.6268 78.0912 85.7146 77.1896C86.8919 76.213 87.6521 75.1047 87.7785 73.5542C87.9333 71.6528 88.817 70.9217 90.7966 70.4935C94.8329 69.6212 97.2184 71.9907 98.1541 74.4692C99.0992 76.9734 99.1649 79.5098 98.4684 82.0755C98.3708 82.4357 98.2985 82.802 98.1609 83.3988C104.822 74.0931 107.488 56.8564 99.49 42.9221C91.9601 29.8028 80.2745 21.7744 64.2258 19.1493C65.3708 18.6218 66.1981 18.7769 67.0112 18.8962C72.8297 19.7494 78.1069 21.9153 83.0148 24.9198C89.8283 29.0908 95.4645 34.3736 99.5128 41.0656C102.539 46.0674 104.239 51.4808 104.921 57.2166C105.365 60.9526 105.327 64.6625 104.79 68.3679C103.946 74.1867 101.878 79.6136 98.6937 84.6513C93.6465 92.6361 86.6167 98.6128 77.8231 102.681C74.9818 103.995 71.9044 104.852 68.9332 105.915C68.6176 106.027 68.2947 106.121 67.8273 106.27Z" fill="#444444"/>
<path d="M78.778 72.7525C79.1344 71.3547 78.3385 70.7539 77.6596 70.1356C76.7854 69.3398 75.8674 68.5867 74.9701 67.8133C73.4827 66.5311 73.051 65.0869 73.8542 63.234C74.3947 61.9884 74.7697 60.6231 74.8944 59.2843C75.1438 56.6027 73.3998 54.567 70.638 53.9279C69.864 53.7488 69.1034 53.4618 68.3879 53.1256C67.5722 52.7426 67.2824 51.9684 67.3619 51.184C67.4694 50.1203 67.8745 49.1511 69.0681 48.714C69.9848 48.3785 70.8947 48.0268 71.814 47.6979C72.9466 47.2929 74.1307 46.9905 75.2113 46.4874C76.7502 45.7709 77.1174 44.8433 76.736 43.2615C76.4114 41.9141 76.0394 40.4817 76.7687 39.2316C78.1506 36.8617 79.4423 34.3645 82.3314 33.1999C83.212 32.8445 83.3423 32.2474 82.797 31.4939C82.2295 30.7108 81.3678 30.3371 80.4222 30.3188C78.2809 30.2768 76.1216 30.1812 73.9983 30.3823C69.7922 30.7808 65.7112 31.8155 61.6556 32.9219C59.6579 33.4665 57.6555 33.9998 55.6444 34.4984C54.9062 34.6812 54.1335 34.7235 53.5311 34.1263C52.8715 33.4722 53.2597 32.7957 53.5328 32.1383C53.8222 31.4439 54.1403 30.7604 54.6013 29.7212C53.4459 29.8205 52.6539 29.814 51.8997 29.9695C50.4997 30.2581 49.3852 31.0641 48.3627 31.9702C46.589 33.5418 44.8549 35.153 43.0713 36.714C40.7816 38.7175 38.1617 39.5512 35.0787 38.6101C34.5284 38.4419 33.9728 38.229 33.4061 38.1822C32.381 38.098 31.2691 37.8814 30.3287 38.1472C27.1369 39.0493 24.7875 41.0182 23.2692 43.8252C22.8431 44.6121 22.6956 45.4746 23.4249 46.5C24.2023 46.1695 24.9965 45.8935 25.7253 45.5072C26.7835 44.9463 27.7565 44.2356 28.8345 43.717C30.2152 43.0527 31.2343 43.4963 31.5856 44.9096C31.9618 46.4231 31.8246 47.8986 30.4143 48.9419C29.6055 49.5403 28.7287 50.2502 27.7781 50.4382C26.4688 50.6975 25.549 51.5194 24.4173 52.0082C23.3079 52.4878 22.755 53.9564 23.0418 54.9541C23.326 55.9404 24.318 56.518 25.7812 56.5449C26.013 56.5493 26.2486 56.5644 26.4761 56.5322C28.4136 56.2563 30.3455 55.9449 32.2864 55.6945C34.7507 55.3766 37.2145 54.9663 39.692 54.8515C42.4375 54.7237 45.081 55.2374 47.455 56.7313C49.0743 57.7501 50.3612 59.0653 51.5635 60.4652C53.2597 62.4402 55.432 63.5629 58.0777 63.8556C59.7989 64.0465 61.5361 64.3188 63.2564 64.2667C67.8254 64.1291 71.4395 65.7887 74.3453 69.052C75.2001 70.0118 76.1615 70.8919 77.1294 71.7524C77.5465 72.1232 78.1042 72.352 78.778 72.7525ZM53.7667 33.7038C54.6469 33.6643 55.1874 33.7266 55.6758 33.6041C58.8586 32.8067 62.0263 31.9555 65.2064 31.1483C69.9814 29.9366 74.8307 29.2446 79.7872 29.4794C80.6316 29.5193 81.5024 29.7359 82.2892 30.0387C83.4253 30.4751 83.9563 31.4373 83.8939 32.5226C83.8359 33.5341 83.0443 33.8162 82.2389 34.1956C81.6034 34.4951 81.0251 34.973 80.5414 35.4753C79.8431 36.2011 79.2458 37.0148 78.6189 37.8008C77.4481 39.2691 76.9037 40.8016 77.5095 42.7026C78.262 45.0659 77.3324 46.6518 74.8617 47.6007C73.7915 48.0114 72.6593 48.2747 71.5719 48.6476C70.7609 48.926 69.9517 49.2281 69.1872 49.6026C68.4451 49.9661 68.1875 50.6597 68.2292 51.4103C68.2718 52.1654 68.8187 52.557 69.5402 52.7621C70.0373 52.9034 70.5283 53.0641 71.0297 53.1903C74.1686 53.9792 76.0919 56.4928 75.7019 59.5249C75.5217 60.9223 75.1885 62.336 74.6669 63.6508C74.1484 64.9587 74.3152 65.9967 75.3132 66.948C76.005 67.6078 76.745 68.2208 77.4536 68.8652C78.0363 69.3951 78.6623 69.8966 79.1564 70.4942C79.4569 70.8569 79.662 71.3686 79.7046 71.8302C79.8302 73.1983 78.8399 73.8316 77.6183 73.1205C76.8461 72.6715 76.2118 71.9995 75.5471 71.397C74.0439 70.0355 72.6211 68.5884 71.0525 67.2996C69.2435 65.8131 67.0704 65.1667 64.6552 65.1292C62.5779 65.0967 60.4899 65.0116 58.4299 64.7718C55.2076 64.3974 52.4888 63.0948 50.4872 60.5641C49.0102 58.6966 47.1991 57.1693 44.8127 56.4073C42.769 55.7544 40.6819 55.4275 38.501 55.7356C34.5585 56.2933 30.6065 56.7907 26.6567 57.3024C26.2576 57.3537 25.8457 57.3549 25.4424 57.3329C23.6743 57.2385 22.5254 56.4602 22.1599 55.1316C21.7944 53.8042 22.414 52.2179 23.7573 51.4225C24.6813 50.8754 25.7193 50.5013 26.6997 50.0369C27.6263 49.5977 28.6015 49.2224 29.452 48.6745C30.7097 47.8644 31.1792 46.4638 30.7836 45.2019C30.5231 44.3707 30.0428 44.098 29.2271 44.4777C28.3998 44.8628 27.6632 45.4176 26.851 45.8357C25.9945 46.2761 25.1251 46.7275 24.2062 47.019C23.0637 47.3817 22.0872 46.7682 22.0459 45.6289C22.0193 44.8962 22.1719 44.0796 22.5129 43.4263C23.8962 40.7748 26.1007 38.908 28.948 37.6921C30.5553 37.0054 32.2206 36.8329 33.8305 37.4459C37.755 38.9418 40.8564 37.8582 43.6883 35.1114C45.6194 33.239 47.7276 31.5029 49.9321 29.9251C50.8273 29.2844 52.1715 29.0365 53.3406 28.9446C55.1547 28.8021 55.6474 29.6044 54.9375 31.1707C54.6202 31.8713 54.2926 32.5673 53.7667 33.7038Z" fill="#444444"/>
<path d="M29.5053 62.7775C31.236 61.6012 33.1189 61.5755 35.0529 62.0037C35.7263 62.1527 36.3859 62.3644 37.0412 62.5756C38.4038 63.0153 39.772 62.9302 41.1505 62.6676C42.1107 62.4844 43.07 62.2862 44.0392 62.1584C46.0773 61.8898 47.5216 62.7474 48.4254 64.4241C49.1345 65.7384 49.7343 67.1049 50.4085 68.4364C50.7327 69.0767 51.0569 69.7292 51.4856 70.3068C52.2729 71.368 53.3001 71.9843 54.7595 71.5915C55.8981 71.285 56.826 71.6538 57.4998 72.5281C58.1504 73.3728 58.0519 74.3387 57.566 75.176C56.9567 76.225 56.1828 77.1905 55.4557 78.1756C55.1246 78.6237 54.7561 79.0507 54.3678 79.4562C53.1454 80.7323 52.8267 82.2066 53.1127 83.8809C53.2399 84.6249 53.2025 85.4053 53.1475 86.1632C53.0735 87.1898 52.5997 88.0556 51.7221 88.6922C50.7323 89.4103 50.3148 90.3791 50.218 91.531C50.1449 92.4038 50.0116 93.2752 49.8469 94.1374C49.5498 95.6927 48.397 96.6245 46.7102 96.6798C44.4644 96.7539 42.671 95.8527 41.2361 94.2786C39.3351 92.1937 38.3948 89.6667 37.6079 87.073C37.1293 85.496 36.7269 83.8902 36.1176 82.3589C35.1445 79.9121 33.649 79.0699 30.8903 79.1973C29.8488 79.2453 28.8087 79.3292 27.7669 79.3491C23.1192 79.437 20.1106 75.0372 20.8123 71.1087C20.9409 70.3874 21.4027 69.6726 21.867 69.0616C22.8865 67.7204 23.8377 66.3633 24.3446 64.7603C24.6443 63.8119 25.408 63.3568 26.4012 63.2314C26.5861 63.2082 26.7925 63.334 27.4087 63.5127C25.4394 64.1017 25.0184 65.4242 24.4684 66.7349C24.0922 67.6312 23.4421 68.4559 22.7808 69.2074C21.1533 71.0582 21.2634 73.0438 22.2291 75.0535C23.1763 77.0248 24.7884 78.2952 27.1408 78.5028C27.999 78.5782 28.8745 78.4829 29.7418 78.456C30.3773 78.4369 31.0141 78.36 31.6475 78.3815C34.3594 78.4739 36.0862 79.6332 36.9681 82.1097C37.724 84.2334 38.2778 86.4205 39.0152 88.5502C39.7754 90.7462 40.7618 92.8299 42.6417 94.437C43.8388 95.4599 45.1967 95.8816 46.7708 95.7913C48.0298 95.7192 48.6765 95.2307 48.9741 94.0771C49.0837 93.6534 49.1448 93.213 49.1732 92.7766C49.309 90.6856 49.9669 88.8827 51.701 87.4015C52.2686 86.9167 52.2862 85.8135 52.4608 84.975C52.5343 84.6205 52.3658 84.2199 52.3043 83.841C52.0093 82.0227 52.3211 80.3993 53.688 78.9604C54.6877 77.9081 55.5227 76.709 56.3651 75.5326C56.6781 75.0954 56.9124 74.5524 56.9911 74.0314C57.1494 72.9885 56.5018 72.371 55.3907 72.3677C55.2755 72.3673 55.1603 72.3917 55.0446 72.3999C52.3843 72.5835 51.25 71.9953 50.0993 69.741C49.42 68.4103 48.8158 67.0455 48.1777 65.6965C47.0435 63.2977 45.9951 62.736 43.2944 63.0934C42.7789 63.1618 42.2573 63.2273 41.7572 63.358C39.9788 63.8232 38.2056 63.8668 36.4573 63.2847C34.6186 62.6725 32.7628 62.414 30.8262 62.7661C30.4009 62.8435 29.946 62.7775 29.5053 62.7775Z" fill="#444444"/>
<path d="M49.8152 134.472C49.7748 134.82 49.7331 135.183 49.6385 136C49.1062 134.169 47.7049 135.008 46.7129 134.791C46.7241 134.676 46.7348 134.561 46.746 134.445C47.2315 134.212 47.7169 133.979 48.3004 133.699C48.4315 132.319 47.6391 130.885 48.2832 129.146C49.3633 130.612 48.4689 132.37 49.7241 133.635C52.3268 133.096 55.0176 132.536 57.7097 131.983C60.4771 131.414 63.2514 130.871 66.0131 130.278C68.7139 129.699 71.4 129.061 74.0973 128.467C76.7989 127.873 79.5039 127.29 82.2124 126.723C84.9754 126.145 87.7325 125.531 90.514 125.045C93.1701 124.581 95.7697 123.71 98.5457 123.94C94.6148 125.156 90.5502 125.802 86.5397 126.661C82.4269 127.542 78.3193 128.444 74.2082 129.331C70.1552 130.206 66.1034 131.088 62.0457 131.942C57.9927 132.797 53.9323 133.622 49.8152 134.472Z" fill="#444444"/>
<path d="M83.7081 106.73C86.3138 105.113 88.8129 103.562 91.4809 101.906C90.8682 103.136 90.2572 103.679 88.1361 104.992C86.8371 105.795 85.5373 106.597 84.1832 107.433C84.8579 108.584 85.4758 109.637 86.2012 110.873C84.9503 110.867 84.9103 110.046 84.5234 109.593C84.0912 109.088 83.7219 108.534 83.2682 107.924C79.1959 109.774 75.1691 111.621 70.625 112.675C70.8172 111.67 71.5404 111.704 72.071 111.5C74.8535 110.434 77.6445 109.387 80.4162 108.297C81.1527 108.008 81.8334 107.591 82.6495 107.177C81.8635 105.929 81.1136 104.739 80.3637 103.549C81.934 104.113 82.4676 105.564 83.7081 106.73Z" fill="#444444"/>
<path d="M91.8406 65.5773C90.9174 63.3751 88.6178 62.6144 86.1944 63.5836C85.5925 63.8245 84.8735 64.1384 85.03 64.7986C85.147 65.2907 85.7184 65.7572 86.2043 66.0764C86.5487 66.3023 87.0849 66.3137 87.5394 66.3336C88.9958 66.3979 90.4048 66.1765 91.8406 65.5773ZM88.1001 62.2708C89.3217 62.307 90.3335 62.677 91.2876 63.238C92.1041 63.7183 92.4615 64.5157 92.4215 65.3319C92.4008 65.7503 91.884 66.367 91.4506 66.5086C89.7001 67.0805 87.8894 67.5458 86.0418 66.8526C85.5753 66.6772 85.0894 66.4325 84.7475 66.0967C83.6382 65.0062 83.7827 63.8445 85.196 63.1606C86.0904 62.7283 87.1271 62.5586 88.1001 62.2708Z" fill="#444444"/>
<path d="M18.279 48.7162C17.895 48.8904 17.4762 49.0191 17.1339 49.2483C16.4873 49.6822 15.7739 50.0913 15.2906 50.6636C14.6667 51.4012 14.8718 52.5238 15.5129 52.8556C16.4408 53.3355 17.6934 52.8784 18.0601 51.8864C18.2489 51.3772 18.3396 50.8358 18.4931 50.2366C19.0981 51.3539 19.0672 52.1298 18.4372 52.9187C17.7918 53.7271 16.6945 54.0893 15.6557 53.8366C14.8146 53.6326 14.1679 52.7921 14.1099 51.8668C13.9946 50.0318 16.163 47.986 18.279 48.7162Z" fill="#444444"/>
</svg>
