<svg width="48" height="48" viewBox="0 0 48 48" fill="none" xmlns="http://www.w3.org/2000/svg">
<path d="M46.6807 24.4892C45.4824 23.7999 44.858 23.3994 44.1978 23.0672C41.3562 21.6395 38.5145 20.2281 35.6657 18.8189C33.4986 17.7462 32.2213 16.0764 32.171 13.63C32.1352 11.7259 32.1495 9.81972 32.1926 7.91566C32.2428 5.86394 32.4437 3.8087 32.0634 1.61641C30.1331 1.9586 29.1284 3.16054 28.0305 4.1715C26.6241 5.47139 25.3539 6.90969 23.9331 8.19326C21.4861 10.4069 18.8023 11.5079 15.5086 9.86231C13.528 8.87621 11.4542 8.07398 9.40192 7.24406C8.2179 6.76414 7.06975 6.04499 5.45518 6.14296C5.77092 7.16883 6.0005 7.97103 6.27319 8.75906C7.3998 12.0056 8.44037 15.2835 9.70332 18.4768C10.5644 20.6627 10.1984 22.588 8.99288 24.4274C8.10307 25.7841 7.05537 27.0422 6.07228 28.3428C4.6658 30.2149 3.25218 32.0848 1.61607 34.2601C2.71398 34.3503 3.28087 34.4802 3.82623 34.427C7.66534 34.0521 11.5117 33.7142 15.3364 33.2172C19.0822 32.7302 20.0653 33.1626 21.7731 36.5092C22.5194 37.9589 23.2227 39.4334 24.0694 40.8214C25.0095 42.3676 26.0285 43.8812 27.1479 45.3046C27.7005 46.0096 28.4611 46.7913 29.6523 46.0615C30.0972 42.2036 30.5924 38.3224 30.9799 34.4312C31.3315 31.0057 32.9748 28.7482 36.4551 27.919C37.9548 27.5612 39.4474 27.1615 40.9113 26.668C42.6909 26.0674 44.4275 25.3475 46.6807 24.4892ZM9.29428 21.4706C7.35679 15.5738 4.68014 10.573 3.90514 5.00138C5.20398 3.989 6.24451 4.39369 7.34242 4.84948C10.4496 6.13943 13.607 7.32218 16.6998 8.65118C18.7378 9.52512 20.503 9.1077 22.0674 7.77444C23.7465 6.34249 25.2678 4.74013 26.9039 3.25849C27.9659 2.29368 29.028 1.28556 30.2335 0.522381C31.9199 -0.538979 33.3479 0.0474243 33.6206 2.00473C33.8717 3.7817 33.6636 5.61977 33.6636 7.43153C33.6636 9.52159 33.6134 11.613 33.6708 13.701C33.7282 15.4985 34.7544 16.7175 36.3331 17.507C39.5981 19.1455 42.8775 20.7641 46.1497 22.3984C46.9964 22.8208 48.2451 23.1595 47.958 24.2876C47.7643 25.0707 46.9103 25.9162 46.1282 26.2861C44.5782 27.0237 42.8846 27.4688 41.2342 28.0069C39.4976 28.5756 37.7467 29.1031 36.003 29.6647C34.0799 30.2852 32.9604 31.5595 32.6949 33.5807C32.1854 37.4478 31.5898 41.3041 31.1305 45.1761C30.9942 46.2779 30.8866 47.3117 29.76 47.8036C28.5042 48.3517 27.5282 47.656 26.6169 46.9013C24.2632 44.9369 22.8065 42.2611 21.7014 39.5761C20.1155 35.7268 18.1709 33.5225 13.5281 34.7926C10.873 35.5195 8.0098 35.5288 5.2399 35.8071C3.99847 35.9327 2.72114 36.0875 1.49407 35.9356C0.0875891 35.7624 -0.4219 34.5902 0.381801 33.4103C1.62323 31.5922 3.03691 29.8925 4.35728 28.1283C6.07232 25.8374 7.76582 23.5322 9.29428 21.4706Z" fill="#444444"/>
</svg>
