<svg width="319" height="315" viewBox="0 0 319 315" fill="none" xmlns="http://www.w3.org/2000/svg">
<path fill-rule="evenodd" clip-rule="evenodd" d="M143.6 53.334C169.529 56.6571 190.732 70.0489 211.855 85.437C239.112 105.294 282.436 119.946 281.269 153.628C280.099 187.404 231.738 193.902 207.288 217.258C183.964 239.537 175.202 278.612 143.6 285.135C108.677 292.343 68.4599 278.654 46.743 250.395C26.284 223.774 40.9936 187.157 42.5363 153.628C43.9566 122.761 33.3135 87.1434 55.2566 65.3673C77.1766 43.6141 112.955 49.4065 143.6 53.334Z" fill="#FDBF4D"/>
<path fill-rule="evenodd" clip-rule="evenodd" d="M115.023 37.7403C143.334 34.9622 169.132 44.1514 195.338 55.5037C229.156 70.153 278.717 75.2809 285.829 111.731C292.961 148.282 243.303 167.095 223.173 198.155C203.97 227.785 204.367 271.884 172.482 286.622C137.246 302.909 91.2181 298.054 61.1909 273.028C32.9031 249.452 39.4203 206.536 32.7448 170.16C26.5991 136.671 6.48727 101.033 24.3516 72.282C42.1971 43.561 81.562 41.0237 115.023 37.7403Z" fill="#FDBF4D" fill-opacity="0.42"/>
</svg>
