<svg width="260" height="265" viewBox="0 0 260 265" fill="none" xmlns="http://www.w3.org/2000/svg">
<path d="M195.252 211.021C199.174 207.68 198.613 203.935 195.536 201.865C194.245 200.992 192.01 200.889 190.353 201.242C186.468 202.066 182.599 203.16 178.865 204.546C174.866 206.032 170.996 207.905 167.14 209.745C164.809 210.859 163.323 212.729 163.082 215.386C162.824 218.254 163.875 219.972 166.671 219.895C169.869 219.799 173.116 219.229 176.23 218.417C179.228 217.633 182.099 216.298 185.004 215.154C188.433 213.803 191.843 212.396 195.252 211.021ZM65.5135 107.239C68.8607 118.678 72.0614 129.626 75.3497 140.895C79.125 139.906 82.6699 138.976 86.2194 138.051C82.9418 126.679 79.7202 115.49 76.4112 104.014C72.6541 105.123 69.4016 106.086 65.5135 107.239ZM101.916 168.198C129.472 160.631 156.559 152.038 184.145 144.191C177.609 122.101 171.073 100.027 164.524 77.9055C163.562 78.2051 163.153 78.3 162.765 78.4533C147.439 84.5494 131.972 90.1612 116.109 94.5864C109.914 96.3164 103.752 98.1518 97.6156 100.067C92.8851 101.547 88.2138 103.23 83.2688 104.903C89.4908 126.02 95.5857 146.719 101.916 168.198ZM179.423 179.802C179.204 181.902 177.335 181.92 175.969 182.388C171.097 184.064 166.19 185.616 161.301 187.222C160.777 187.396 160.27 187.623 159.492 187.926C159.744 188.792 159.952 189.538 160.171 190.299C166.816 188.639 173.266 187.031 180.026 185.344C182.125 190.322 184.113 195.02 186.178 199.909C187.468 199.633 188.848 199.316 190.229 199.032C194.477 198.158 198.118 199.721 199.514 202.997C201.031 206.568 199.821 210.58 195.666 212.762C191.393 215.003 186.692 216.418 182.162 218.186C179.395 219.262 176.567 220.216 173.843 221.392C169.101 223.44 163.857 222.295 160.534 218.335C160.536 218.337 160.625 218.66 160.625 218.66C160.75 217.245 160.731 215.81 161.013 214.433C161.735 210.954 164.001 208.665 167.95 206.886C166.012 206.838 164.886 206.809 163.477 206.777C165.453 204.409 165.465 204.424 173.483 202.157C176.901 201.191 180.295 200.114 184.104 198.966C182.158 195.034 180.331 191.327 178.327 187.276C172.628 189.048 166.971 190.803 161.347 192.548C161.257 196.93 164.375 200.198 163.301 204.255C163.267 204.381 162.795 204.401 162.21 204.552C161.13 201.036 159.795 197.55 159.02 193.932C158.265 190.371 157.372 186.913 156.245 183.442C153.465 174.924 151.183 166.235 148.558 157.087C140.921 159.225 133.029 161.544 125.083 163.632C117.107 165.733 109.482 169.3 100.803 170.197C96.6506 159.945 94.5072 149.176 90.8216 138.747C85.4101 140.313 80.1036 141.854 74.5042 143.479C69.4763 131.401 67.3094 118.625 62.6181 106.482C67.8467 103.801 73.1646 102.506 78.5428 101.865C80.9972 114.085 85.3585 125.568 87.949 137.701C88.6229 137.706 89.2798 137.708 90.6309 137.722C87.2205 126.191 83.9477 115.107 80.5768 103.673C81.7017 103.235 82.8315 102.719 84.0152 102.35C96.0385 98.6203 108.113 95.0681 120.086 91.1614C132.597 87.0817 145.01 82.6851 157.464 78.3878C160.452 77.3589 163.412 76.4302 166.752 77.7C173.243 100.169 180.3 122.581 186.579 145.561C180.752 147.298 175.606 148.83 170.562 150.335C173.236 158.643 175.85 166.615 178.358 174.626C178.892 176.343 179.076 178.174 179.418 179.946C178.687 178.758 177.731 177.669 177.258 176.39C175.373 171.301 173.678 166.138 171.835 161.032C170.821 158.227 170.634 154.994 168.132 152.877C162.351 154.784 156.724 156.642 150.954 158.545C153.739 167.718 156.441 176.575 159.091 185.304C166.254 183.364 172.838 181.582 179.423 179.802Z" fill="#444444"/>
<path d="M200.412 174.917C200.798 172.716 199.652 172.115 197.723 171.679C193.099 170.625 191.02 167.549 191.305 162.766C191.516 159.193 192.959 156.157 195.52 153.639C199.955 149.28 206.145 149.307 210.348 153.651C213.394 156.799 213.566 161.027 210.802 164.651C209.108 166.872 209.241 167.796 211.591 170.198C216.212 165.661 216.889 159.351 213.379 153.588C210.246 148.441 203.646 145.63 198.516 147.249C191.769 149.384 187.611 154.657 187.917 160.691C188.288 168.118 193.135 173.695 200.412 174.917ZM211.429 173.597C206.814 169.61 206.373 167.189 209.625 162.932C210.974 161.164 210.997 159.462 210.282 157.763C208.156 152.734 201.816 150.416 196.999 154.985C194.318 157.528 193.277 160.743 193.49 164.307C193.707 167.807 194.884 169.094 198.326 169.537C199.284 169.664 200.313 169.379 201.347 169.28C202.151 171.801 202.769 173.752 203.415 175.769C200.464 178.022 197.846 176.715 195.586 175.767C185.659 171.569 183.091 158 188.686 151.614C189.934 150.191 190.055 148.722 189.496 146.909C186.379 136.875 183.403 126.793 180.383 116.726C180.34 116.592 180.299 116.46 180.258 116.327C179.505 113.834 180.171 111.135 178.493 108.67C176.972 106.442 176.507 103.476 175.619 100.822C174.731 98.1671 173.916 95.4824 173.059 92.8148C171.251 87.219 169.409 81.6311 167.655 76.0152C166.685 72.9311 167.043 72.177 170.021 71.2854C174.097 70.057 178.215 69.0116 182.846 67.7467C186.792 79.832 190.274 91.4813 192.591 103.504C187.551 92.9416 185.37 81.3637 181.246 69.8969C177.274 71.2157 173.432 72.4909 169.306 73.859C173.021 85.62 176.624 97.0811 180.342 108.862C184.623 108.343 188.962 105.748 193.927 106.461C192.604 107.145 191.281 107.83 189.95 108.522C189.984 108.646 190.018 108.769 190.044 108.9C191.342 108.734 192.632 108.576 194.338 108.364C197.12 119.461 201.372 130.067 202.946 141.487C198.297 131.706 196.146 121.045 192.478 110.354C189.077 111.473 185.656 112.6 181.918 113.832C185.155 125.04 188.281 135.9 191.488 147.004C194.262 146.203 196.862 145.477 199.442 144.694C202.478 143.772 205.115 143.856 207.875 145.831C210.273 147.542 212.762 149.011 214.549 151.423C218.485 156.713 218.824 164.283 215.124 169.719C214.13 171.179 212.664 172.324 211.429 173.597Z" fill="#444444"/>
<path d="M151.66 208.859C150.414 204.446 149.222 200.232 147.997 195.912C141.605 197.84 135.649 199.638 129.312 201.547C130.523 206.117 131.633 210.333 132.814 214.816C139.342 212.752 145.286 210.873 151.66 208.859ZM155.242 224.584C158.101 222.238 158.627 220.487 157.884 218.122C156.676 214.237 153.737 212.696 149.639 213.949C145.819 215.116 142.007 216.345 138.247 217.7C134.087 219.195 129.872 220.639 125.881 222.535C122.302 224.238 121.343 228.001 123.042 231.622C124.352 234.415 126.7 234.902 130.639 233.476C135.576 231.693 140.595 230.126 145.539 228.352C149.163 227.051 152.72 225.569 155.242 224.584ZM147.249 190.398C144.269 181.542 141.344 172.835 138.348 163.927C132.345 165.902 126.188 167.926 119.77 170.038C122.591 179.054 125.258 187.553 127.97 196.223C134.416 194.277 140.805 192.346 147.249 190.398ZM160.625 218.66C160.625 218.66 160.535 218.337 160.534 218.336C160.616 222.508 158.671 225.361 154.739 226.878C151.418 228.158 148.081 229.386 144.744 230.631C140.226 232.314 135.496 233.162 131.088 235.441C126.513 237.805 122.977 236.368 121.122 232.444C118.934 227.841 120.026 223.456 124.241 220.962C126.422 219.671 128.873 218.833 131.531 217.645C130.284 211.784 127.391 206.342 127.513 200.052C130.213 199.046 132.713 198.118 135.226 197.171C139.096 196.297 142.973 195.478 146.819 194.508C147.187 194.415 147.345 193.406 147.944 192.041C143.503 193.566 139.897 194.773 136.326 196.071C135.867 196.239 135.576 196.89 135.215 197.308C134.202 197.298 133.155 197.098 132.189 197.31C130.409 197.7 128.678 198.331 126.866 198.881C123.549 188.792 120.347 179.057 117.047 169.038C118.484 168.422 119.466 167.897 120.504 167.571C125.821 165.892 131.143 164.203 136.485 162.637C139.863 161.641 140.865 162.67 141.589 165.61C142.988 171.318 145.121 176.821 146.75 182.471C147.595 185.389 148.018 188.438 148.629 191.427C148.687 191.696 148.646 191.996 148.734 192.251C150.639 197.93 152.563 203.598 154.553 209.463C154.111 209.834 153.497 210.349 152.556 211.139C157.118 211.971 159.144 215.049 160.625 218.66Z" fill="#444444"/>
<path d="M89.2771 33.7919C88.5975 37.6879 89.5561 39.7948 92.4582 40.7424C92.0214 38.0934 91.7686 35.5473 89.2771 33.7919ZM117.662 23.8694C118.773 26.5069 119.402 28.354 120.298 30.054C121.484 32.2991 121.571 32.2531 124.756 30.1456C122.436 28.2952 123.047 23.7685 117.662 23.8694ZM155.226 70.3991C150.534 56.0274 144.441 42.7305 142.4 27.7428C119.728 34.912 97.1803 41.8304 74.6111 48.6897C74.4347 48.2633 74.2502 47.8438 74.0649 47.4235C74.7264 46.9647 75.3333 46.3077 76.0605 46.0768C80.1136 44.7878 84.2055 43.595 88.3847 42.3397C87.5491 39.3318 86.7927 36.6677 85.9359 33.6179C87.4615 32.7089 88.8749 31.8658 90.3358 30.9962C93.6047 33.229 92.6434 37.1054 94.6283 40.2856C102.479 37.9018 110.473 35.4731 118.956 32.8948C117.676 29.6232 116.482 26.587 115.079 23.0033C117.431 22.1649 119.473 21.439 121.925 20.5689C123.452 24.0354 124.841 27.1709 126.277 30.4285C132.18 29.3985 137.73 25.8189 144.453 27.2463C146.411 42.301 153.072 55.9594 157.248 70.431C148.48 77.3751 95.9619 96.2008 87.0691 95.4803C87.5522 93.9275 88.896 93.8661 90.0199 93.5259C100.553 90.2985 111.199 87.4383 121.579 83.7451C132.754 79.7693 143.662 75.0253 155.226 70.3991Z" fill="#444444"/>
<path d="M107.166 203.057C107.9 202.351 108.66 201.877 109.048 201.208C112.853 194.702 112.015 188.648 107.316 184.112C101.648 178.654 95.0352 178.772 89.4033 182.52C83.4752 186.463 82.9838 192.396 83.7634 198.48C84.5749 204.801 88.6855 207.921 95.5028 207.947C94.8804 205.576 94.9282 205.467 92.6169 204.525C86.3359 201.945 82.2789 192.686 89.3101 186.449C95.2128 181.212 103.737 180.928 107.211 189.159C108.52 192.265 108.375 195.518 106.685 198.576C105.865 200.06 105.109 201.37 107.166 203.057ZM84.8579 178.799C86.6532 178.494 88.4608 178.303 90.2237 177.877C93.2608 177.14 96.2712 176.254 99.748 175.309C99.5393 176.258 99.4424 176.708 99.2568 177.584C106.462 179.386 112.004 183.447 113.348 191.351C114.367 197.404 111.324 202.258 107.21 207.166C105.64 205.046 104.211 203.11 102.679 201.035C104.874 197.698 106.868 194.387 105.329 190.341C104.449 188.011 103.174 186.127 100.725 185.237C96.5292 183.712 90.0358 186.898 88.3071 191.34C86.2161 196.697 89.4792 201.384 96.8182 203.346C97.1215 204.455 97.5159 205.64 97.7733 206.862C97.9139 207.528 97.8328 208.246 97.8567 208.89C91.3126 211.584 84.5264 208.418 82.4148 201.695C80.2533 194.845 81.1133 188.354 85.2704 182.965C85.1709 181.217 85.0925 180.01 85.0222 178.795L84.8579 178.799Z" fill="#444444"/>
<path d="M98.2673 76.8983C99.9408 79.9403 101.733 78.434 103.07 78.016C115.462 74.1599 127.813 70.1881 140.386 66.1824C140.278 65.4721 140.167 64.7078 139.997 63.5578C126.06 68.016 112.416 72.3755 98.2673 76.8983ZM98.2989 81.7583C97.6109 80.4228 97.0535 79.6089 96.7547 78.704C95.9958 76.3862 96.4555 75.1714 98.8378 74.4187C112.163 70.2116 125.512 66.1159 138.865 62.0086C139.652 61.7664 140.517 61.7822 141.632 61.6474C142.329 63.6928 142.98 65.5989 143.595 67.3956C128.385 72.2177 113.53 76.9288 98.2989 81.7583Z" fill="#444444"/>
<path d="M85.0221 178.795C84.1522 176.911 83.0646 175.099 82.4472 173.133C80.1137 165.646 77.9123 158.117 75.7016 150.594C75.2744 149.137 75.0434 147.614 74.6546 145.87C79.051 143.627 83.4074 142.234 88.4306 142.084C91.2836 152.867 95.3165 163.194 96.7343 174.296C92.2831 164.684 90.1297 154.269 86.5256 143.805C83.4172 144.806 80.3944 145.777 77.033 146.859C77.8972 150.034 78.6607 152.973 79.4932 155.894C81.2776 162.078 83.1636 168.233 84.8469 174.446C85.2091 175.792 84.8761 177.341 84.8584 178.8C84.8577 178.799 85.0221 178.795 85.0221 178.795Z" fill="#444444"/>
<path d="M96.9381 52.0839C101.753 52.8337 102.817 53.968 102.674 57.1408C102.534 60.4161 100.878 62.8154 98.0746 64.3967C95.1674 66.0369 92.3212 65.6548 89.6586 63.9116C87.1952 62.3061 86.1867 59.0923 87.059 55.6753C87.906 52.3447 90.5179 49.7371 93.4368 49.5407C94.2147 49.4867 95.0131 50.0225 95.8729 50.6814C91.9323 51.9383 88.7346 53.5649 88.9001 58.1688C88.995 60.743 90.6584 62.6256 93.2068 63.1683C95.4705 63.6544 98.2786 62.2287 99.716 59.9009C101.672 56.7284 99.9939 54.5782 96.9381 52.0839Z" fill="#444444"/>
<path d="M84.9787 91.809C82.8503 92.2823 82.9585 90.7649 82.698 89.8226C80.1686 80.5059 77.6271 71.1914 75.2346 61.8384C74.4084 58.5922 73.9782 55.2359 73.4272 51.9187C73.3329 51.3407 73.5509 50.7026 74.3617 50.006C77.8955 63.9285 81.4291 77.851 84.9787 91.809Z" fill="#444444"/>
<path d="M123.792 50.365C125.88 52.9197 128.8 52.9078 131.99 50.3236C134.731 48.1032 135.239 45.9975 133.545 43.8454C130.868 40.4559 127.558 39.9535 124.531 42.4816C122.07 44.5372 121.758 47.8739 123.792 50.365ZM129.048 38.453C130.928 39.6794 132.16 40.6991 133.573 41.3519C135.712 42.3373 136.879 43.8114 136.744 46.2121C136.468 50.8048 130.412 55.3435 125.958 54.2266C122.974 53.4806 121.263 51.4079 120.506 48.5101C119.811 45.8364 120.544 43.4843 122.55 41.5509C124.447 39.7216 126.662 38.4701 129.048 38.453Z" fill="#444444"/>
<path d="M154.073 102.949C145.472 105.486 137.112 107.878 128.782 110.423C121.817 112.548 114.855 114.711 107.97 117.114C104.118 118.459 103.602 119.574 104.652 123.619C106.118 129.324 107.842 134.953 109.51 140.6C109.887 141.881 110.526 143.075 110.993 144.213C117.995 142.181 124.594 140.418 131.081 138.272C132.643 137.755 134.219 136.208 135.08 134.74C136.81 131.796 137.837 128.447 139.566 125.502C141.358 122.45 143.533 119.588 145.76 116.82C146.886 115.419 148.708 114.747 150.392 115.706C152.208 116.739 153.251 118.448 152.679 120.676C152.22 122.458 151.612 124.211 150.916 125.925C150.137 127.857 149.185 129.732 148.007 132.286C152.662 130.799 156.656 129.523 161.034 128.123C158.768 119.669 158.631 110.775 154.073 102.949ZM155.304 100.375C160.958 109.657 160.835 120.22 163.688 129.54C156.987 131.796 150.794 133.878 144.437 136.013C143.867 134.469 144.905 133.179 145.548 131.849C146.924 129.016 148.441 126.252 149.724 123.391C151.09 120.346 150.971 118.042 149.486 117.686C147.062 117.092 145.806 118.921 144.85 120.675C142.451 125.066 140.024 129.457 137.97 133.993C136.29 137.694 133.853 139.962 129.847 140.925C124.436 142.226 119.132 144.002 113.741 145.393C110.267 146.291 108.971 145.761 107.898 142.453C105.822 136.056 103.866 129.6 102.295 123.056C101.251 118.719 102.368 116.99 106.899 115.289C112.651 113.131 118.499 111.221 124.372 109.44C134.494 106.371 144.67 103.482 155.304 100.375Z" fill="#444444"/>
</svg>
