<svg width="103" height="104" viewBox="0 0 103 104" fill="none" xmlns="http://www.w3.org/2000/svg">
<path d="M32.4786 92.3471C35.3207 89.9903 38.3146 87.6665 40.9811 85.2642C43.5024 83.0065 45.6751 80.6683 48.7593 77.6135C46.3567 78.1791 45.0507 78.2615 44.5971 78.6275C36.9207 84.9044 29.3175 91.2256 20.5073 98.5329C36.0822 93.5185 49.5607 94.1017 63.568 91.9305C54.0978 90.7501 44.0151 91.0967 33.172 93.1048C32.9408 92.8519 32.7095 92.599 32.4786 92.3471Z" fill="#444444"/>
<path d="M63.174 79.6328C69.3413 75.731 74.6874 71.5857 77.7568 66.8746C71.9034 68.9737 67.3748 72.9671 63.174 79.6328Z" fill="#444444"/>
<path d="M85.2038 28.7043C84.4827 23.1152 82.2232 20.5542 76.584 18.9539C75.8381 21.6607 80.9333 27.4077 85.2038 28.7043Z" fill="#444444"/>
<path d="M87.594 52.4927C90.6506 47.9623 92.5882 43.6018 91.6523 39.4983C86.4211 44.15 86.8176 48.375 87.594 52.4927Z" fill="#444444"/>
<path d="M57.917 6.48131C56.5226 9.74169 58.9538 11.1898 63.7119 12.1707C63.8382 8.90553 61.1925 7.57218 57.917 6.48131Z" fill="#444444"/>
</svg>
