<svg width="422" height="415" viewBox="0 0 422 415" fill="none" xmlns="http://www.w3.org/2000/svg">
<path fill-rule="evenodd" clip-rule="evenodd" d="M184.27 366.326C151.207 351.389 128.505 324.995 106.72 295.981C78.6091 258.542 27.0598 221.496 42.286 177.226C57.5541 132.833 124.377 143.826 166.31 122.723C206.312 102.592 233.808 54.2409 278.398 58.4006C327.674 62.9973 375.49 97.5031 392.838 143.855C409.18 187.522 374.788 230.195 359.126 274.108C344.707 314.536 344.369 366.17 306.404 386.193C268.479 406.194 223.347 383.98 184.27 366.326Z" fill="#F6B8D1"/>
<path fill-rule="evenodd" clip-rule="evenodd" d="M225.234 378.685C189.54 372.192 161.128 352.074 132.973 329.194C96.6401 299.668 37.6613 276.196 41.7268 229.556C45.8035 182.788 113.301 177.286 148.883 146.664C182.828 117.452 197.812 63.884 242.084 57.131C291.008 49.6685 345.75 71.5797 373.794 112.358C400.213 150.774 377.165 200.5 372.59 246.898C368.378 289.614 380.539 339.797 348.545 368.41C316.585 396.994 267.42 386.36 225.234 378.685Z" fill="#F6B8D1" fill-opacity="0.51"/>
</svg>
