<svg width="294" height="290" viewBox="0 0 294 290" fill="none" xmlns="http://www.w3.org/2000/svg">
<path fill-rule="evenodd" clip-rule="evenodd" d="M243.103 180.087C230.117 198.954 210.894 209.998 190.094 220.16C163.253 233.272 134.22 261.06 107.535 246.315C80.777 231.53 94.7648 191.126 85.66 162.456C76.9744 135.106 48.9632 112.22 56.2688 84.8828C64.342 54.6727 91.3637 28.9144 122.774 23.5754C152.365 18.5456 176.031 45.0625 202.442 60.0367C226.756 73.8226 259.696 80.1468 268.524 106.212C277.344 132.25 258.451 157.788 243.103 180.087Z" fill="#53BFA9"/>
<path fill-rule="evenodd" clip-rule="evenodd" d="M260.694 164.262C250.409 186.787 232.016 202.154 211.779 216.878C185.664 235.877 159.97 270.912 128.792 260.224C97.5287 249.507 104.836 203.864 89.7612 175.049C75.3801 147.562 41.2618 128.455 43.9081 97.9787C46.8325 64.2996 70.7662 31.8028 103.205 20.2215C133.765 9.31113 163.939 33.0993 194.868 44.0833C223.343 54.1957 259.599 54.7447 273.891 80.838C288.168 106.904 272.849 137.64 260.694 164.262Z" fill="#53BFA9" fill-opacity="0.38"/>
</svg>
