<svg width="133" height="127" viewBox="0 0 133 127" fill="none" xmlns="http://www.w3.org/2000/svg">
<path d="M94.498 110.132C93.7149 110.002 92.6966 109.358 92.4697 110.79C92.3174 111.756 93.2303 112.701 94.1487 112.674C95.0968 112.647 96.1168 111.758 96.0511 110.912C95.9744 109.906 95.3546 109.746 94.498 110.132ZM3.34018 6.72738C3.25298 6.87086 3.16522 7.01437 3.07802 7.15234C4.2696 8.11812 5.38945 9.19426 6.66492 10.0276C13.3133 14.3764 20.0057 18.6601 26.6734 22.9796C30.9717 25.7644 35.4119 28.3637 39.5071 31.4233C45.8673 36.175 52.0013 41.2307 58.191 46.208C58.9598 46.8261 59.6496 47.1352 60.61 46.9139C61.4776 46.7147 62.3623 46.5883 63.2421 46.4426C67.8511 45.6827 72.4452 44.8096 77.0747 44.2015C82.155 43.5342 87.2658 43.0966 92.3665 42.5878C102.189 41.6082 112.017 40.681 121.836 39.6606C124.607 39.3725 127.353 38.8372 130.11 38.4155C130.142 38.2577 130.173 38.0999 130.205 37.942C129.544 37.5198 128.899 37.0706 128.22 36.6788C114.972 29.027 101.726 21.3697 88.4628 13.7417C81.5761 9.77924 74.4503 6.22514 67.9256 1.64457C67.4736 1.32999 66.8306 1.13134 66.2803 1.14238C64.9464 1.15894 63.6113 1.29691 62.2834 1.44592C57.7158 1.95916 53.1542 2.52757 48.5849 3.02425C42.8263 3.6534 37.0665 4.28258 31.2979 4.80686C25.3085 5.35322 19.3092 5.82229 13.3094 6.24724C9.99238 6.48454 6.6638 6.57285 3.34018 6.72738ZM95.1471 127C95.1471 122.651 95.1471 118.303 95.1471 113.967C92.3185 113.605 91.5017 112.933 91.4327 110.979C91.3753 109.342 91.8107 108.981 94.5311 108.418C95.4639 104.609 96.3458 100.788 97.3376 96.995C98.894 91.0419 100.594 85.1258 102.106 79.1617C104.6 69.3217 107.502 59.5756 109.031 49.5072C109.396 47.1015 109.987 44.7302 110.544 42.0055C101.447 42.4906 92.6386 43.5784 83.8201 44.5541C74.979 45.5326 66.1771 46.776 57.1721 48.8422C57.4183 48.048 57.5519 47.6181 57.7158 47.0883C50.9703 41.8102 44.3258 36.3295 37.3756 31.2671C32.2803 27.5558 26.7683 24.4189 21.4716 20.9801C15.8686 17.3455 10.2639 13.7031 4.74039 9.9503C3.22373 8.9183 1.97917 7.48344 0.647959 6.19205C0.362068 5.91611 0.241738 5.4691 0 5.01656C6.22172 5.72849 12.2657 5.32008 18.3053 4.8565C21.8596 4.58056 25.4112 4.26598 28.9578 3.90726C35.1613 3.28364 41.3604 2.61036 47.5606 1.95914C51.6238 1.52868 55.687 1.09823 59.7501 0.673286C62.0351 0.435982 64.3172 0.17662 66.6077 0.00553894C67.1397 -0.0330963 67.8009 0.132439 68.2258 0.441483C74.1826 4.80131 80.7791 8.09052 87.1609 11.7329C92.7683 14.9338 98.4431 18.0193 104.032 21.2528C112.643 26.2351 121.209 31.2941 129.783 36.3388C130.795 36.9338 131.737 37.6452 133 38.4967C125.965 40.7787 118.969 41.1484 111.722 41.984C109.591 53.1749 107.286 64.3996 104.203 75.4542C101.139 86.4426 98.3752 97.5155 95.3965 108.871C95.8469 109.198 96.4137 109.466 96.7719 109.904C97.3205 110.574 97.5479 111.413 96.8795 112.143C96.1902 112.897 96.3331 113.731 96.3232 114.631C96.2884 117.972 96.1725 121.314 96.0262 124.653C95.9926 125.435 95.7232 126.207 95.5621 126.983C95.4235 126.989 95.2856 126.994 95.1471 127Z" fill="#444444"/>
<path d="M25.0971 29.8C21.6201 39.6157 19.658 49.5153 15.8057 58.8193C16.4277 53.5589 18.4184 48.6554 19.7507 43.5859C21.0836 38.5163 22.6759 33.5147 24.1826 28.385C26.1419 28.9948 27.7165 29.9131 29.1868 31.0494C34.4178 35.0914 39.5981 39.2034 44.9169 43.1272C48.7968 45.9898 52.8755 48.582 56.8393 51.332C57.7643 51.9739 58.7197 52.1173 59.7942 51.9998C66.436 51.2719 73.0783 50.5533 79.7222 49.8508C83.8527 49.4137 87.9871 49.023 92.1171 48.5865C94.6249 48.3216 97.1245 47.9611 99.6357 47.7442C100.475 47.6725 101.34 47.9132 102.146 48.0053C102.301 52.1841 98.2433 73.9335 96.7288 76.9297C96.3176 76.1074 96.5031 75.4479 96.6245 74.784C97.9905 67.3486 99.3614 59.9142 100.699 52.4738C100.895 51.3883 100.922 50.2735 101.039 49.05C99.5772 49.05 98.262 48.938 96.9722 49.0682C89.7322 49.7994 82.4989 50.5947 75.2611 51.3563C71.2034 51.7829 67.1429 52.1874 63.0836 52.6008C62.9357 52.6157 62.7718 52.5815 62.6405 52.6328C59.6668 53.789 57.0932 52.6709 54.6984 51.0875C50.4879 48.3044 46.2768 45.5114 42.2097 42.5268C37.1813 38.8375 32.3062 34.9402 27.3478 31.1549C26.7153 30.6725 25.9796 30.326 25.0971 29.8Z" fill="#444444"/>
<path d="M95.717 79.8081C94.3753 80.5288 93.0656 81.318 91.6869 81.9577C86.776 84.2347 81.5964 85.3909 76.1882 85.6067C65.8045 86.0217 55.7938 84.2071 46.0404 80.7214C39.3077 78.3147 32.7233 75.6055 26.8068 71.5145C22.322 68.4135 18.277 64.8114 14.79 60.6061C14.5378 60.3015 14.4026 59.8997 14.21 59.5377C15.1157 58.9781 15.3795 59.6696 15.7432 60.0758C18.9249 63.6232 22.3363 66.9146 26.2119 69.7154C31.7387 73.7099 37.823 76.6387 44.2241 78.8556C48.9126 80.4797 53.6817 81.9665 58.5203 83.0388C66.64 84.8379 74.8978 85.1172 83.0987 83.6083C85.9758 83.0791 88.7127 81.7678 91.5004 80.775C92.8068 80.3103 94.0806 79.7551 95.3693 79.2407C95.4852 79.4295 95.6011 79.6193 95.717 79.8081Z" fill="#444444"/>
<path d="M91.8818 113.145C91.0821 114.328 90.3552 115.076 90.0191 115.97C89.348 117.752 88.8788 119.612 88.3506 121.447C88.0305 122.559 87.7557 123.684 87.089 124.811C87.02 124.452 86.8759 124.088 86.8942 123.732C87.0421 120.821 87.8523 118.055 88.9754 115.396C89.4009 114.389 89.9126 113.214 91.8818 113.145Z" fill="#444444"/>
<path d="M94.1558 114.828C93.4261 118.315 92.697 121.802 91.9674 125.289C91.7958 125.284 91.6241 125.279 91.4525 125.274C91.4525 124.548 91.367 123.81 91.4691 123.098C91.7715 120.977 92.0894 118.854 92.5276 116.759C92.6899 115.982 93.2037 115.279 93.558 114.542C93.7573 114.637 93.9565 114.732 94.1558 114.828Z" fill="#444444"/>
</svg>
