<svg width="32" height="32" viewBox="0 0 32 32" fill="none" xmlns="http://www.w3.org/2000/svg">
<path d="M30.6664 12.9466C30.7323 11.0382 30.3149 9.144 29.453 7.43998C28.8682 6.74078 28.0567 6.26893 27.1597 6.10665C23.4497 5.77001 19.7244 5.63204 15.9997 5.69331C12.2886 5.62926 8.57665 5.76278 4.87971 6.09331C4.1488 6.22627 3.4724 6.5691 2.93304 7.07998C1.73304 8.18665 1.59971 10.08 1.46638 11.68C1.27293 14.5567 1.27293 17.4432 1.46638 20.32C1.50495 21.2205 1.63904 22.1144 1.86638 22.9866C2.02714 23.6601 2.35241 24.2831 2.81304 24.8C3.35607 25.3379 4.04822 25.7003 4.79971 25.84C7.67426 26.1948 10.5707 26.3419 13.4664 26.28C18.133 26.3466 22.2264 26.28 27.0664 25.9066C27.8363 25.7755 28.548 25.4127 29.1064 24.8666C29.4797 24.4932 29.7585 24.0361 29.9197 23.5333C30.3965 22.0701 30.6308 20.5388 30.613 19C30.6664 18.2533 30.6664 13.7466 30.6664 12.9466ZM12.9864 19.8V11.5466L20.8797 15.6933C18.6664 16.92 15.7464 18.3066 12.9864 19.8Z" fill="#444444"/>
</svg>
